<svg width="54" height="54" viewBox="0 0 54 54" fill="none" xmlns="http://www.w3.org/2000/svg">
<path d="M18.4331 40.5271C18.4242 40.5491 18.4129 40.5701 18.4045 40.5909C17.8861 41.8673 18.77 43.4333 20.3813 44.0888C21.9917 44.7444 23.7193 44.2418 24.2388 42.966C24.2466 42.9441 24.2547 42.9221 24.2634 42.8996C37.2247 47.4789 40.8094 43.6172 38.0435 38.7796C35.079 33.5954 37.0197 32.5337 38.2819 24.8849C39.0471 20.2442 36.6989 17.4843 34.7335 16.0322C35.5443 15.6515 36.2194 14.9783 36.5831 14.0847C37.351 12.1988 36.4417 10.0401 34.5559 9.27308C32.6692 8.50442 30.5113 9.41453 29.7434 11.2995C29.3797 12.1926 29.393 13.1466 29.7065 13.9845C27.2861 13.6523 23.6776 13.9871 20.9838 17.8421C16.5445 24.1981 17.192 26.3136 11.4497 27.9533C6.09078 29.4832 5.95806 34.7521 18.4332 40.5275L18.4331 40.5271ZM30.9784 11.803C31.4694 10.5981 32.8475 10.018 34.0524 10.5081C35.2572 10.9983 35.8383 12.3772 35.3472 13.5812C34.9717 14.5023 34.0777 15.0588 33.1399 15.0493C32.8342 14.8963 32.5958 14.7949 32.4647 14.7418C32.3897 14.7107 32.347 14.698 32.347 14.698C32.347 14.698 32.3074 14.6769 32.2315 14.6466C32.101 14.5926 31.8603 14.4991 31.5335 14.3957C30.8563 13.7465 30.6038 12.7235 30.9784 11.803V11.803Z" fill="#4DA1BE"/>
<path d="M19.0006 17.0499L18.8398 16.1104C18.791 16.119 14.0671 16.9841 14.781 22.1779L15.7246 22.0474C15.1378 17.7799 18.8432 17.0776 19.0006 17.0499L19.0006 17.0499Z" fill="#4DA1BE"/>
<path d="M11.2231 24.3734C10.657 20.265 11.7424 17.0976 14.4471 14.9598C16.4876 13.3468 18.7408 12.9416 18.7637 12.9378L18.6029 12C18.503 12.0167 16.119 12.4388 13.8879 14.188C11.8169 15.8105 9.51019 18.9188 10.2795 24.5031L11.2231 24.3734Z" fill="#4DA1BE"/>
<path d="M40.2553 25.7018C40.3488 25.8322 42.5085 28.924 39.1079 31.5673L39.6927 32.3198C43.8318 29.1019 41.0549 25.1819 41.0263 25.1436L40.2553 25.7018Z" fill="#4DA1BE"/>
<path d="M40.7039 36.3764L41.2887 37.1281C45.7389 33.6689 46.2594 29.8338 45.9126 27.2246C45.538 24.4148 44.1258 22.4476 44.0664 22.3662L43.2951 22.9253C43.3092 22.9447 44.6388 24.8077 44.9717 27.3885C45.4145 30.8071 43.9781 33.8308 40.7039 36.3765L40.7039 36.3764Z" fill="#4DA1BE"/>
</svg>
