<svg width="54" height="54" viewBox="0 0 54 54" fill="none" xmlns="http://www.w3.org/2000/svg">
<path d="M47.7499 14.5002H41.4874C41.4748 14.05 41.4748 13.625 41.4748 13.2502C41.4739 12.9187 41.342 12.6014 41.1079 12.3673C40.8737 12.1331 40.5563 12.0009 40.2249 12H10.2502C9.91874 12.0009 9.6014 12.1331 9.36725 12.3673C9.13309 12.6014 9.00125 12.9188 9 13.2502C9 16.6626 9 23.7504 10.5001 28.5252C11.9575 33.1125 14.0531 37.4718 16.7253 41.4752C16.9629 41.8045 17.3439 41.9997 17.7501 42.0004H32.7375C33.1236 41.9966 33.487 41.8171 33.725 41.5129C36.3611 37.8272 38.4532 33.7817 39.9373 29.5004H41.4998C43.3022 29.4774 45.0534 28.8967 46.5124 27.8379C47.9516 26.9321 48.8747 25.3965 49 23.7005V15.7505C48.9987 15.4193 48.8669 15.102 48.6327 14.8679C48.3986 14.6334 48.0812 14.5016 47.7498 14.5006L47.7499 14.5002ZM25.9403 33.1052C25.497 33.3004 24.992 33.2988 24.55 33.1002C23.8114 32.7765 17.2642 29.7591 17.7787 25.0195L17.7818 24.9915C17.8031 24.8217 17.8166 24.7228 17.8355 24.624C17.9422 24.0232 18.1644 23.4487 18.4893 22.9321C18.9702 22.1586 19.6698 21.5449 20.4995 21.1689C21.3288 20.7929 22.2514 20.6711 23.15 20.819C23.9376 21.0311 24.6592 21.4373 25.2493 22.0004C26.0419 21.2706 27.058 20.83 28.1324 20.7505C29.7057 20.7558 31.1653 21.5704 31.9955 22.9063C32.3298 23.4409 32.5586 24.0341 32.6701 24.6544C32.6842 24.7263 32.698 24.8276 32.7109 24.929L32.7153 24.967L32.7206 25.0207L32.7212 25.0194C33.2357 29.7592 26.6886 32.7772 25.9403 33.1052ZM46.5003 23.7002C46.3475 24.5854 45.8126 25.3579 45.0379 25.8127C44.0052 26.5554 42.7723 26.9694 41.5004 27.0001H40.6629C41.2926 23.7055 41.5732 20.3538 41.5004 16.9997H46.5004L46.5003 23.7002Z" fill="#4DA1BE"/>
</svg>
