<svg width="54" height="54" viewBox="0 0 54 54" fill="none" xmlns="http://www.w3.org/2000/svg">
<path fill-rule="evenodd" clip-rule="evenodd" d="M40.8064 21.016H46.3549C46.6775 21.016 47 21.3389 47 21.6614C47 22.0485 46.6775 22.3065 46.3549 22.3065H45.0647V37.7908L44.2256 37.7905V41.0163H42.9354V37.7905H11.0643V41.0163H9.77412V37.7905H8.93531V22.3062H7.6451C7.32255 22.3062 7 22.0482 7 21.6611C7 21.3385 7.32255 21.016 7.6451 21.016H13.129V16.4354C18.2259 11.8549 35.7742 11.8549 40.8064 16.4354V21.016ZM11.9025 22.3071V32.9522L11.9027 32.8876H42.1614V22.2425H40.8712V26.823C37.3873 24.9523 29.9676 25.1457 27.1935 27.3393C24.3544 25.0812 16.5479 24.9523 13.193 27.0167L13.1927 22.3071H11.9025ZM27.129 28.7581C27.3224 28.7581 27.5161 28.7581 27.7095 28.5647L27.7093 28.5647C29.9029 26.4357 38.3545 26.3711 40.8057 28.4358V31.6616H13.1283V28.6293C13.1606 28.6293 13.1767 28.6131 13.1929 28.597C13.209 28.5808 13.2251 28.5647 13.2574 28.5647C15.516 26.3066 24.29 26.3066 26.5481 28.5647C26.6773 28.6935 26.8064 28.7581 26.9998 28.7581H27.129Z" fill="#4DA1BE"/>
</svg>
