<svg width="54" height="54" viewBox="0 0 54 54" fill="none" xmlns="http://www.w3.org/2000/svg">
<path d="M26.6621 12.0002C33.5439 12.0936 39.2955 14.4365 44.0642 19.1494C45.0521 20.126 45.2778 21.2994 44.6458 22.1088C44.0009 22.9342 42.72 23.0263 41.5641 22.3029H41.5638C41.2336 22.0904 40.9255 21.8451 40.6442 21.5711C33.047 14.3274 21.3946 14.0922 13.4785 21.0353C12.7121 21.7075 11.8746 22.1665 10.825 22.0949C10.0909 22.045 9.50036 21.7301 9.16987 21.0465C8.83086 20.3433 9.03351 19.7028 9.47572 19.1227C9.67511 18.8736 9.89735 18.6436 10.1394 18.4356C14.8932 14.1707 20.4945 12.1063 26.662 12L26.6621 12.0002Z" fill="#4DA1BE"/>
<path d="M27.1515 20.002C31.892 20.0977 35.8127 21.8927 39.2995 24.7642C39.737 25.1243 40.0468 25.6129 40.2543 26.1458C40.518 26.8223 40.5617 27.5028 40.0524 28.0892C39.5306 28.6888 38.8325 28.7888 38.0957 28.6235C37.3039 28.4462 36.6944 27.9571 36.1015 27.4282C31.3746 23.1969 24.3637 22.9044 19.3674 26.7251C18.9194 27.0676 18.5089 27.4583 18.0842 27.8304C17.4323 28.4007 16.6998 28.7565 15.8088 28.6855C14.6487 28.5933 13.9752 27.614 14.2936 26.5003C14.4604 25.9305 14.7835 25.419 15.226 25.0237C18.6397 21.8878 22.6053 20.0687 27.1516 20.002L27.1515 20.002Z" fill="#4DA1BE"/>
<path d="M28.0359 28.3389C30.4908 28.3833 32.8251 29.4111 34.5152 31.192C35.1121 31.8158 35.5242 32.519 35.2886 33.442C34.9906 34.6183 33.5757 35.1697 32.5906 34.2569C29.525 31.4163 25.2608 31.3952 22.0099 34.0945C21.1029 34.8476 20.5208 34.9093 19.7958 34.3285C19.0709 33.7477 18.8951 32.7648 19.3775 31.8676C19.6376 31.3839 20.0181 31.0027 20.4399 30.6582C22.3017 29.1425 24.7028 28.3339 28.0359 28.339L28.0359 28.3389Z" fill="#4DA1BE"/>
<path d="M30.2789 38.8397C30.2784 39.6315 29.9612 40.3901 29.3982 40.9471C28.8355 41.504 28.0734 41.8132 27.2816 41.8054C25.573 41.7969 24.2526 40.4589 24.2807 38.7624C24.3096 36.9995 25.6463 35.6686 27.3589 35.7038C29.0097 35.7347 30.2929 37.1113 30.2789 38.8397Z" fill="#4DA1BE"/>
</svg>
