<svg width="54" height="54" viewBox="0 0 54 54" fill="none" xmlns="http://www.w3.org/2000/svg">
<path d="M46.1979 32.4414C41.7886 27.2269 31.3664 25.623 31.3664 25.623H8.51526C5.10592 34.2398 8.51526 35.8441 8.51526 35.8441C8.51526 35.8441 44.3991 36.448 46.1979 35.2402C48.0029 34.0456 46.1974 32.4414 46.1974 32.4414L46.1979 32.4414ZM30.8631 26.2944H31.1047C31.1716 26.2944 31.2254 26.3482 31.2254 26.4152C31.2254 26.4821 31.1716 26.5359 31.1047 26.5359H30.8631C30.7962 26.5359 30.7423 26.4821 30.7423 26.4152C30.7423 26.3478 30.7962 26.2944 30.8631 26.2944ZM29.4073 26.2944H30.1319C30.1989 26.2944 30.2527 26.3482 30.2527 26.4152C30.2527 26.4821 30.1989 26.5359 30.1319 26.5359H29.4073C29.3403 26.5359 29.2865 26.4821 29.2865 26.4152C29.2865 26.3478 29.3399 26.2944 29.4073 26.2944ZM8.91817 26.4152C8.91817 26.3482 8.972 26.2944 9.03894 26.2944H9.7636C9.83055 26.2944 9.88438 26.3482 9.88438 26.4152C9.88438 26.4821 9.83054 26.5359 9.7636 26.5359H9.03894C8.97153 26.5359 8.91817 26.4821 8.91817 26.4152ZM11.2199 26.536H10.4953C10.4283 26.536 10.3745 26.4821 10.3745 26.4152C10.3745 26.3483 10.4283 26.2944 10.4953 26.2944H11.2199C11.2869 26.2944 11.3407 26.3483 11.3407 26.4152C11.3407 26.4821 11.2869 26.536 11.2199 26.536ZM11.8308 26.4152C11.8308 26.3483 11.8847 26.2944 11.9516 26.2944H12.6763C12.7432 26.2944 12.797 26.3483 12.797 26.4152C12.797 26.4821 12.7432 26.536 12.6763 26.536H11.9516C11.8842 26.536 11.8308 26.4821 11.8308 26.4152ZM14.1326 26.536H13.4079C13.341 26.536 13.2872 26.4822 13.2872 26.4152C13.2872 26.3483 13.341 26.2944 13.4079 26.2944H14.1326C14.1995 26.2944 14.2534 26.3483 14.2534 26.4152C14.2534 26.4822 14.1995 26.536 14.1326 26.536ZM15.5889 26.536H14.8642C14.7973 26.536 14.7435 26.4822 14.7435 26.4152C14.7435 26.3483 14.7973 26.2944 14.8642 26.2944H15.5889C15.6558 26.2944 15.7097 26.3483 15.7097 26.4152C15.7097 26.4822 15.6558 26.536 15.5889 26.536ZM17.0382 26.536H16.3136C16.2466 26.536 16.1928 26.4822 16.1928 26.4152C16.1928 26.3483 16.2466 26.2944 16.3136 26.2944H17.0382C17.1052 26.2944 17.159 26.3483 17.159 26.4152C17.159 26.4822 17.1056 26.536 17.0382 26.536ZM18.4945 26.536H17.7699C17.7029 26.536 17.6491 26.4822 17.6491 26.4152C17.6491 26.3483 17.7029 26.2944 17.7699 26.2944H18.4945C18.5615 26.2944 18.6153 26.3483 18.6153 26.4152C18.6153 26.4822 18.562 26.536 18.4945 26.536ZM19.9508 26.536H19.2262C19.1592 26.536 19.1054 26.4822 19.1054 26.4152C19.1054 26.3483 19.1592 26.2944 19.2262 26.2944H19.9508C20.0178 26.2944 20.0716 26.3483 20.0716 26.4152C20.0716 26.4822 20.0182 26.536 19.9508 26.536ZM21.4071 26.536H20.6825C20.6155 26.536 20.5617 26.4822 20.5617 26.4152C20.5617 26.3483 20.6155 26.2944 20.6825 26.2944H21.4071C21.4741 26.2944 21.5279 26.3483 21.5279 26.4152C21.5279 26.4822 21.4741 26.536 21.4071 26.536ZM22.857 26.536H22.1323C22.0654 26.536 22.0115 26.4822 22.0115 26.4152C22.0115 26.3483 22.0654 26.2944 22.1323 26.2944H22.857C22.9239 26.2944 22.9777 26.3483 22.9777 26.4152C22.9777 26.4822 22.9239 26.536 22.857 26.536ZM24.3133 26.536H23.5886C23.5217 26.536 23.4678 26.4822 23.4678 26.4152C23.4678 26.3483 23.5217 26.2944 23.5886 26.2944H24.3133C24.3802 26.2944 24.434 26.3483 24.434 26.4152C24.434 26.4822 24.3802 26.536 24.3133 26.536ZM25.7691 26.536H25.0444C24.9775 26.536 24.9237 26.4822 24.9237 26.4152C24.9237 26.3483 24.9775 26.2944 25.0444 26.2944H25.7691C25.836 26.2944 25.8899 26.3483 25.8899 26.4152C25.8903 26.4822 25.8365 26.536 25.7691 26.536ZM27.2254 26.536H26.5007C26.4338 26.536 26.38 26.4822 26.38 26.4152C26.38 26.3483 26.4338 26.2944 26.5007 26.2944H27.2254C27.2923 26.2944 27.3462 26.3483 27.3462 26.4152C27.3462 26.4822 27.2928 26.536 27.2254 26.536ZM28.6752 26.536H27.9506C27.8836 26.536 27.8298 26.4822 27.8298 26.4152C27.8298 26.3483 27.8836 26.2944 27.9506 26.2944H28.6752C28.7422 26.2944 28.796 26.3483 28.796 26.4152C28.8026 26.4822 28.7422 26.536 28.6752 26.536Z" fill="#4DA1BE"/>
<path d="M22.6552 18.3549C21.4541 17.5563 21.0514 18.3549 21.0514 18.3549C16.6421 27.1735 14.0384 23.1668 14.0384 23.1668C14.0384 23.1668 13.6358 20.16 11.4346 20.563C9.2264 20.9656 8.83081 24.9723 8.83081 24.9723H30.8838C30.8764 24.9723 23.8568 19.1605 22.6556 18.3548L22.6552 18.3549ZM23.0578 21.5631C22.615 21.5631 22.2592 21.2073 22.2592 20.7644C22.2592 20.3216 22.615 19.9658 23.0578 19.9658C23.5007 19.9658 23.8565 20.3216 23.8565 20.7644C23.8565 21.2073 23.5007 21.5631 23.0578 21.5631ZM25.2589 23.1669C24.8161 23.1669 24.4603 22.8111 24.4603 22.3683C24.4603 21.9254 24.8161 21.5696 25.2589 21.5696C25.7018 21.5696 26.0576 21.9254 26.0576 22.3683C26.0641 22.8046 25.7018 23.1669 25.2589 23.1669Z" fill="#4DA1BE"/>
</svg>
