<svg width="54" height="54" viewBox="0 0 54 54" fill="none" xmlns="http://www.w3.org/2000/svg">
<path fill-rule="evenodd" clip-rule="evenodd" d="M7 14.0353C7 13.4616 7.48035 13 8.07739 13H45.9226C46.5196 13 47 13.4616 47 14.0353V35.2526C47 35.8263 46.5197 36.2879 45.9226 36.2879H33.5589C34.4489 36.5378 35.3606 36.8396 36.275 37.1424C37.7655 37.6358 39.2631 38.1317 40.6852 38.4087V40.3265C40.6852 40.3265 40.0473 40.3343 39.9652 40.3113C31.7938 38.2075 23.3772 37.3003 14.037 40.3113C13.9675 40.3343 13.3169 40.1924 13.3169 40.1924V38.4077C15.0383 38.0352 16.8863 37.4364 18.698 36.8494C19.2879 36.6582 19.874 36.4683 20.4506 36.2879H8.07739C7.48038 36.2879 7 35.8263 7 35.2526V14.0353ZM37.2862 18.1483C37.0875 17.8195 36.7132 17.6254 36.3181 17.6464L36.318 17.6465L36.3078 17.6485C35.9356 17.6702 35.6029 17.8795 35.4337 18.1985C35.2642 18.5175 35.2829 18.8991 35.4831 19.2012V19.2016L39.8745 26.1079C40.0124 26.351 40.2481 26.5292 40.5266 26.6009C40.805 26.6727 41.1018 26.6314 41.3478 26.4872C41.5938 26.3429 41.7675 26.1079 41.8281 25.8373C41.8891 25.5667 41.8317 25.2836 41.6695 25.0546L37.2862 18.1483ZM32.1117 18.573C31.9132 18.2469 31.5421 18.0542 31.1495 18.0732L31.1494 18.0729C30.779 18.0922 30.4463 18.2975 30.274 18.6131C30.1013 18.9287 30.1147 19.308 30.3085 19.6121L36.6264 29.7288C36.9267 30.207 37.5738 30.361 38.0714 30.0725C38.5695 29.7839 38.7295 29.1621 38.4295 28.6836L32.1117 18.573Z" fill="#4DA1BE"/>
</svg>
