<svg width="15" height="11" viewBox="0 0 15 11" fill="none" xmlns="http://www.w3.org/2000/svg">
<g clip-path="url(#clip0_705_641)">
<path d="M1.59279 2.45395C1.52876 2.5174 1.49251 2.6037 1.49201 2.69393C1.49118 2.78433 1.52759 2.87122 1.59279 2.93391L7.25208 8.59298C7.31544 8.65718 7.40183 8.69334 7.49206 8.69334C7.58229 8.69334 7.66868 8.65718 7.73204 8.59298L13.3924 2.93391C13.4596 2.87104 13.4984 2.78357 13.5 2.69157C13.5015 2.5995 13.4656 2.51085 13.4005 2.44572C13.3355 2.38068 13.2467 2.34477 13.1547 2.34636C13.0628 2.34787 12.9753 2.38671 12.9124 2.45392L7.49206 7.873L2.07298 2.45392C2.00945 2.38997 1.92307 2.35406 1.83292 2.35406C1.74285 2.35406 1.65647 2.38997 1.59294 2.45392L1.59279 2.45395Z" fill="#3B3F41" stroke="#3B3F41" stroke-width="0.5"/>
</g>
<defs>
<clipPath id="clip0_705_641">
<rect width="10" height="15" fill="white" transform="translate(15 0.017746) rotate(90)"/>
</clipPath>
</defs>
</svg>
