<svg width="34" height="34" viewBox="0 0 34 34" fill="none" xmlns="http://www.w3.org/2000/svg">
<path d="M16.9977 1.48903C25.5612 1.48903 32.5029 8.43333 32.5029 17V17.0073C32.5029 25.5703 25.5636 32.511 17.005 32.511H16.9904C8.43057 32.511 1.49252 25.5691 1.49252 17.0073V17C1.49129 8.43333 8.433 1.48903 16.9977 1.48903ZM16.9977 1C12.7251 1 8.70922 2.66394 5.68811 5.68618C2.66699 8.70841 1.00366 12.7258 1.00366 17V17.0073C1.00366 21.2791 2.66699 25.2953 5.68566 28.3163C8.70555 31.3373 12.7203 33 16.9904 33H17.005C21.2752 33 25.2899 31.3361 28.3098 28.3163C31.3297 25.2965 32.9918 21.2791 32.9918 17.0073V17C32.9918 12.7258 31.3284 8.70841 28.3073 5.68618C25.2862 2.66394 21.2691 1 16.9977 1Z" fill="#4DA1BE" stroke="#4DA1BE" stroke-width="0.3"/>
<path d="M16.9977 10.4799C19.1205 10.4799 19.3723 10.4885 20.2107 10.5264C20.9855 10.5619 21.4071 10.6915 21.687 10.8003C22.0585 10.9445 22.3225 11.1169 22.6012 11.3957C22.8798 11.6744 23.0521 11.9385 23.1964 12.3102C23.3051 12.5901 23.4347 13.0119 23.4701 13.787C23.508 14.6257 23.5166 14.8776 23.5166 17.0012C23.5166 19.1249 23.508 19.3767 23.4701 20.2154C23.4347 20.9905 23.3051 21.4123 23.1964 21.6923C23.0521 22.064 22.8798 22.328 22.6012 22.6068C22.3225 22.8855 22.0585 23.0579 21.687 23.2022C21.4071 23.311 20.9855 23.4406 20.2107 23.4761C19.3723 23.514 19.1205 23.5225 16.9977 23.5225C14.8748 23.5225 14.6231 23.514 13.7847 23.4761C13.0099 23.4406 12.5882 23.311 12.3084 23.2022C11.9368 23.0579 11.6729 22.8855 11.3942 22.6068C11.1156 22.328 10.9432 22.064 10.799 21.6923C10.6903 21.4123 10.5607 20.9905 10.5253 20.2154C10.4874 19.3767 10.4788 19.1249 10.4788 17.0012C10.4788 14.8776 10.4874 14.6257 10.5253 13.787C10.5607 13.0119 10.6903 12.5901 10.799 12.3102C10.9432 11.9385 11.1156 11.6744 11.3942 11.3957C11.6729 11.1169 11.9368 10.9445 12.3084 10.8003C12.5882 10.6915 13.0099 10.5619 13.7847 10.5264C14.6231 10.4873 14.8736 10.4799 16.9977 10.4799ZM16.9977 9.04585C14.8382 9.04585 14.5669 9.05441 13.7199 9.09353C12.873 9.13265 12.2961 9.26714 11.7902 9.46275C11.2671 9.6657 10.8235 9.93834 10.3823 10.3797C9.93987 10.8223 9.66856 11.2661 9.46569 11.7881C9.26892 12.2943 9.13449 12.8725 9.0966 13.7186C9.05749 14.5671 9.04895 14.8372 9.04895 16.9976C9.04895 19.1579 9.05749 19.4293 9.0966 20.2765C9.13571 21.1238 9.27015 21.7009 9.46569 22.207C9.66856 22.7303 9.9411 23.1741 10.3823 23.6154C10.8247 24.058 11.2683 24.3294 11.7902 24.5324C12.2961 24.7292 12.8742 24.8637 13.7199 24.9016C14.5681 24.9407 14.8394 24.9493 16.9977 24.9493C19.1572 24.9493 19.4285 24.9407 20.2755 24.9016C21.1224 24.8625 21.6992 24.728 22.2052 24.5324C22.7283 24.3294 23.1719 24.0568 23.6131 23.6154C24.0555 23.1728 24.3268 22.7291 24.5297 22.207C24.7265 21.7009 24.8609 21.1226 24.8988 20.2765C24.9379 19.4281 24.9464 19.1579 24.9464 16.9976C24.9464 14.8372 24.9379 14.5658 24.8988 13.7186C24.8597 12.8713 24.7252 12.2943 24.5297 11.7881C24.3268 11.2648 24.0543 10.821 23.6131 10.3797C23.1707 9.93712 22.727 9.6657 22.2052 9.46275C21.6992 9.26592 21.1212 9.13143 20.2755 9.09353C19.4273 9.05563 19.1572 9.04585 16.9977 9.04585Z" fill="#4DA1BE"/>
<path d="M16.9978 12.9166C14.743 12.9166 12.9147 14.7455 12.9147 17.0012C12.9147 19.2569 14.743 21.0859 16.9978 21.0859C19.2526 21.0859 21.081 19.2569 21.081 17.0012C21.081 14.7455 19.2526 12.9166 16.9978 12.9166ZM16.9978 19.6518C15.5337 19.6518 14.347 18.4647 14.347 17C14.347 15.5353 15.5337 14.3482 16.9978 14.3482C18.4619 14.3482 19.6486 15.5353 19.6486 17C19.6486 18.4647 18.4607 19.6518 16.9978 19.6518Z" fill="#4DA1BE"/>
<path d="M21.2426 13.7107C21.7699 13.7107 22.1974 13.2831 22.1974 12.7555C22.1974 12.228 21.7699 11.8003 21.2426 11.8003C20.7152 11.8003 20.2877 12.228 20.2877 12.7555C20.2877 13.2831 20.7152 13.7107 21.2426 13.7107Z" fill="#4DA1BE"/>
</svg>
