<svg width="231" height="45" viewBox="0 0 231 45" fill="none" xmlns="http://www.w3.org/2000/svg">
<g clip-path="url(#clip0_705_183)">
<path d="M34.0725 7.91983V8.98755H25.3606V14.8963H31.1927V15.9641H25.3606V23.3759H34.0725V24.4437H22.574V7.91983H34.0725Z" fill="#034959"/>
<path d="M61.5033 24.8376C60.2188 24.8376 59.0275 24.6095 57.9191 24.1534C56.8107 23.6973 55.8473 23.0753 55.0289 22.2771C54.2105 21.4789 53.5683 20.5563 53.1021 19.499C52.636 18.4416 52.3977 17.3013 52.3977 16.0988C52.3977 15.311 52.5013 14.5439 52.7188 13.8183C52.926 13.0822 53.2368 12.4084 53.6201 11.7761C54.0137 11.1438 54.4799 10.5632 55.0393 10.0449C55.5883 9.52661 56.1995 9.08086 56.8728 8.70768C57.5462 8.33449 58.2713 8.0546 59.0482 7.84728C59.8252 7.63995 60.6435 7.54665 61.5033 7.54665C62.3631 7.54665 63.1815 7.65032 63.9584 7.84728C64.7354 8.0546 65.4709 8.33449 66.1442 8.70768C66.8175 9.08086 67.4391 9.52661 67.9777 10.0449C68.5268 10.5632 68.9929 11.1438 69.3969 11.7761C69.7906 12.4084 70.091 13.0926 70.3085 13.8183C70.5157 14.5543 70.6297 15.311 70.6297 16.0988C70.6297 16.897 70.5261 17.6641 70.3085 18.4105C70.1014 19.1569 69.7906 19.8514 69.3969 20.5045C69.0033 21.1576 68.5268 21.7485 67.9777 22.2771C67.4287 22.8058 66.8175 23.2619 66.1442 23.6455C65.4709 24.029 64.7354 24.3193 63.9584 24.5266C63.1815 24.7339 62.3631 24.8376 61.5033 24.8376ZM61.5033 24.0187C62.446 24.0187 63.2851 23.8217 64.0102 23.4278C64.7354 23.0339 65.3465 22.4845 65.8438 21.7795C66.341 21.0746 66.7139 20.235 66.9729 19.2709C67.2319 18.3068 67.3562 17.2495 67.3562 16.0988C67.3562 14.9585 67.2319 13.9219 66.9729 12.9682C66.7243 12.0249 66.341 11.2059 65.8438 10.5218C65.3465 9.8376 64.7354 9.30892 64.0102 8.92537C63.2851 8.55218 62.446 8.35522 61.5033 8.35522C60.5399 8.35522 59.6905 8.54182 58.9654 8.92537C58.2402 9.30892 57.629 9.8376 57.1318 10.5218C56.6346 11.2059 56.2616 12.0249 56.013 12.9682C55.7644 13.9115 55.6401 14.9585 55.6401 16.0988C55.6401 17.2495 55.7644 18.3068 56.013 19.2709C56.2616 20.235 56.6346 21.0746 57.1318 21.7795C57.629 22.4845 58.2402 23.0339 58.9654 23.4278C59.7009 23.8217 60.5399 24.0187 61.5033 24.0187Z" fill="#034959"/>
<path d="M89.4106 24.454H83.8996C82.2007 24.454 80.7504 24.2985 79.528 23.9772C78.3057 23.6558 77.2905 23.1583 76.4721 22.4534C75.5398 21.6552 74.8457 20.7429 74.3692 19.7063C73.9031 18.68 73.6648 17.5501 73.6648 16.3269C73.6648 15.1659 73.872 14.067 74.2967 13.0511C74.7111 12.0249 75.3326 11.1334 76.1406 10.3766C76.9486 9.61991 77.9535 9.01866 79.1447 8.57291C80.336 8.12716 81.7034 7.90947 83.2366 7.90947H89.4002V24.454H89.4106ZM86.6343 9.12232H83.682C82.7497 9.12232 81.8795 9.27782 81.0508 9.57844C80.2324 9.88943 79.5073 10.3455 78.8961 10.9468C78.2849 11.548 77.8084 12.3048 77.4459 13.1859C77.0833 14.067 76.9175 15.0933 76.9175 16.2647C76.9175 17.2909 77.0833 18.2239 77.4148 19.0739C77.7463 19.924 78.2124 20.66 78.8133 21.2716C79.4141 21.8832 80.1289 22.3601 80.9472 22.7021C81.7759 23.0442 82.6772 23.2101 83.6613 23.2101H86.624V9.12232H86.6343Z" fill="#034959"/>
<path d="M46.2651 7.91983C44.732 7.91983 43.3646 8.13752 42.1733 8.58327C40.982 9.01865 39.9772 9.6199 39.1692 10.387C38.3612 11.1541 37.7396 12.0352 37.3253 13.0615C36.9109 14.0878 36.6934 15.1762 36.6934 16.3372C36.6934 17.5605 36.9316 18.6904 37.3978 19.7166C37.8639 20.7429 38.5684 21.6655 39.5007 22.4637C40.319 23.1582 41.3342 23.6662 42.5566 23.9876C43.779 24.2985 45.2396 24.4644 46.9281 24.4644H49.7665L49.6526 23.2412H46.6899C45.7058 23.2412 44.8045 23.0753 43.9758 22.7332C43.1471 22.3911 42.4323 21.9143 41.8418 21.3027C41.241 20.6911 40.7748 19.9551 40.4433 19.105C40.1119 18.255 39.9461 17.3117 39.9461 16.2958C39.9461 15.1348 40.1222 14.1085 40.4744 13.217C40.8266 12.3255 41.3135 11.5895 41.9247 10.9779C42.5359 10.3663 43.2506 9.91015 44.0794 9.60953C44.8977 9.29854 45.7783 9.15341 46.7106 9.15341H49.6629C49.6629 9.15341 49.7769 9.4022 49.7769 7.94056H46.2651V7.91983Z" fill="#034959"/>
<path d="M14.3265 45C11.7989 44.2018 9.41631 42.8645 7.37557 41.0815C5.34519 39.2882 3.66702 37.0698 2.46537 34.613C1.23264 32.1769 0.507505 29.4713 0.176015 26.7657C-0.124398 24.0394 -0.0518849 21.3234 0.331401 18.6075C1.14977 13.1963 3.80169 7.9302 8.13178 4.47823C12.4308 0.984797 18.0765 -0.373186 23.3182 0.072564C18.0765 0.507948 12.9488 2.29095 9.18841 5.72218C7.32377 7.43262 5.78027 9.46441 4.66149 11.7346C3.51164 13.9945 2.74506 16.4098 2.3825 18.9392C1.63664 23.9772 1.91634 29.264 3.926 33.9496C5.88386 38.6662 9.58205 42.6365 14.3265 45Z" fill="#034959"/>
<path d="M160.691 7.91983C159.158 7.91983 157.791 8.13752 156.6 8.58327C155.408 9.01865 154.403 9.6199 153.595 10.387C152.787 11.1541 152.166 12.0352 151.752 13.0615C151.337 14.0878 151.12 15.1762 151.12 16.3372C151.12 17.5605 151.358 18.6904 151.824 19.7166C152.29 20.7429 152.995 21.6655 153.927 22.4637C154.745 23.1582 155.76 23.6662 156.983 23.9876C158.205 24.2985 159.666 24.4644 161.354 24.4644H164.193L164.079 23.2412H161.116C160.132 23.2412 159.231 23.0753 158.402 22.7332C157.573 22.3911 156.859 21.9143 156.268 21.3027C155.667 20.6911 155.201 19.9551 154.87 19.105C154.538 18.255 154.372 17.3117 154.372 16.2958C154.372 15.1348 154.548 14.1085 154.901 13.217C155.253 12.3255 155.74 11.5895 156.351 10.9779C156.962 10.3663 157.677 9.91015 158.506 9.60953C159.324 9.29854 160.205 9.15341 161.137 9.15341H164.089C164.089 9.15341 164.203 9.4022 164.203 7.94056H160.691V7.91983Z" fill="#034959"/>
<path d="M222.504 7.91983C220.971 7.91983 219.603 8.13752 218.412 8.58327C217.221 9.01865 216.216 9.6199 215.408 10.387C214.6 11.1541 213.979 12.0352 213.564 13.0615C213.15 14.0878 212.932 15.1762 212.932 16.3372C212.932 17.5605 213.171 18.6904 213.637 19.7166C214.103 20.7429 214.807 21.6655 215.74 22.4637C216.558 23.1582 217.573 23.6662 218.795 23.9876C220.018 24.2985 221.478 24.4644 223.167 24.4644H226.005L225.891 23.2412H222.929C221.945 23.2412 221.043 23.0753 220.215 22.7332C219.386 22.3911 218.671 21.9143 218.081 21.3027C217.48 20.6911 217.014 19.9551 216.682 19.105C216.351 18.255 216.185 17.3117 216.185 16.2958C216.185 15.1348 216.361 14.1085 216.713 13.217C217.066 12.3255 217.552 11.5895 218.164 10.9779C218.775 10.3663 219.49 9.91015 220.318 9.60953C221.137 9.29854 222.017 9.15341 222.949 9.15341H225.902C225.902 9.15341 226.016 9.4022 226.016 7.94056H222.504V7.91983Z" fill="#034959"/>
<path d="M104.639 7.91983V8.98755H95.9266V14.8963H101.759V15.9641H95.9266V23.3759H104.639V24.4437H93.1504V7.91983H104.639Z" fill="#034959"/>
<path d="M107.912 7.91983H109.466L120.291 20.0173H120.415V7.91983H121.638V24.8376H120.985L109.259 11.3925H109.155V24.454H107.902V7.91983H107.912Z" fill="#034959"/>
<path d="M139.808 7.91983V8.98755H133.83V24.454H131.054V8.98755H125.077V7.91983H139.808Z" fill="#034959"/>
<path d="M167.207 7.91983H169.984V23.3863H178.312V24.454H167.207V7.91983Z" fill="#034959"/>
<path d="M180.788 8.30339H183.564V24.8376H180.788V8.30339Z" fill="#034959"/>
<path d="M188.07 7.91983H189.624L200.45 20.0173H200.574V7.91983H201.796V24.8376H201.144L189.417 11.3925H189.313V24.454H188.06V7.91983H188.07Z" fill="#034959"/>
<path d="M206.292 8.30339H209.068V24.8376H206.292V8.30339Z" fill="#034959"/>
<path d="M26.8522 38.9254L27.1837 39.4126C26.9558 39.7132 26.645 39.9413 26.2617 40.1071C25.8784 40.273 25.464 40.3455 25.0186 40.3455C24.1277 40.3455 23.3922 40.076 22.8225 39.5266C22.2631 38.9772 21.9834 38.2619 21.9834 37.3601C21.9834 36.5204 22.2527 35.8051 22.8018 35.235C23.3508 34.6545 24.0345 34.3642 24.8425 34.3642C25.8266 34.3642 26.5725 34.6026 27.0801 35.0795L26.7486 35.6185C26.2928 35.2039 25.6919 34.9965 24.9357 34.9965C24.3245 34.9965 23.7859 35.2246 23.3404 35.6704C22.895 36.1161 22.6775 36.6759 22.6775 37.3601C22.6775 38.0753 22.9054 38.6455 23.3508 39.0809C23.8066 39.5059 24.3763 39.7236 25.06 39.7236C25.7955 39.7236 26.3964 39.454 26.8522 38.9254Z" fill="#034959"/>
<path d="M32.8708 39.0187L33.0884 39.5266C32.5704 40.076 31.866 40.3455 30.9648 40.3455C30.0428 40.3455 29.3073 40.076 28.7583 39.5266C28.1989 38.9772 27.9192 38.2619 27.9192 37.3601C27.9192 36.4893 28.1782 35.774 28.6858 35.2142C29.2037 34.6545 29.9185 34.3746 30.8301 34.3746C31.5656 34.3746 32.1871 34.613 32.6947 35.0898C33.192 35.5563 33.4302 36.1887 33.4302 36.9661C33.4302 37.1735 33.4199 37.3497 33.3888 37.5052H28.6547C28.6858 38.1997 28.9033 38.7388 29.328 39.1327C29.7527 39.5266 30.3121 39.7236 30.9958 39.7236C31.8142 39.7236 32.4254 39.4851 32.8708 39.0187ZM30.7679 34.9965C30.1567 34.9965 29.6595 35.1728 29.2762 35.5356C28.8929 35.888 28.6754 36.3649 28.6236 36.9558H32.7569C32.7465 36.3545 32.5704 35.8777 32.2078 35.5252C31.8556 35.1624 31.3688 34.9965 30.7679 34.9965Z" fill="#034959"/>
<path d="M35.6781 40.2315H35.0151V34.4782H35.6367L38.0193 37.6814L40.319 34.4782H40.9198V40.2315H40.2568V35.4941L38.0193 38.604H37.9778L35.6678 35.4941V40.2315H35.6781Z" fill="#034959"/>
<path d="M47.4978 39.0187L47.7153 39.5266C47.1974 40.076 46.4929 40.3455 45.5917 40.3455C44.6697 40.3455 43.9343 40.076 43.3852 39.5266C42.8258 38.9772 42.5461 38.2619 42.5461 37.3601C42.5461 36.4893 42.8051 35.774 43.3127 35.2142C43.8307 34.6545 44.5454 34.3746 45.457 34.3746C46.1925 34.3746 46.8141 34.613 47.3217 35.0898C47.8189 35.5563 48.0572 36.1887 48.0572 36.9661C48.0572 37.1735 48.0468 37.3497 48.0157 37.5052H43.2816C43.3024 38.1997 43.5303 38.7388 43.955 39.1327C44.3797 39.5266 44.9391 39.7236 45.6228 39.7236C46.4412 39.7236 47.0627 39.4851 47.4978 39.0187ZM45.3949 34.9965C44.7837 34.9965 44.2865 35.1728 43.9032 35.5356C43.5199 35.888 43.3024 36.3649 43.2506 36.9558H47.3838C47.3735 36.3545 47.187 35.8777 46.8348 35.5252C46.4826 35.1728 45.9957 34.9965 45.3949 34.9965Z" fill="#034959"/>
<path d="M54.1379 35.4423L50.3051 40.2315H49.6421V34.4782H50.3051V39.2674L54.1379 34.4782H54.8009V40.2315H54.1379V35.4423ZM50.533 31.4927H51.1338C51.1338 31.8037 51.2477 32.0733 51.4653 32.2909C51.6828 32.5086 51.9729 32.6123 52.3251 32.6123C52.6566 32.6123 52.9259 32.4983 53.1435 32.2909C53.361 32.0733 53.4646 31.8037 53.4646 31.4927H54.0654C54.0654 31.9592 53.8997 32.3531 53.5785 32.6641C53.2574 32.9751 52.843 33.1306 52.3251 33.1306C51.7761 33.1306 51.341 32.9751 51.0198 32.6745C50.6884 32.3739 50.533 31.98 50.533 31.4927Z" fill="#034959"/>
<path d="M61.8763 40.2315H61.2133V37.6296H57.484V40.2315H56.821V34.4782H57.484V36.9972H61.2133V34.4782H61.8763V40.2315Z" fill="#034959"/>
<path d="M64.0722 35.4423L63.8961 34.8929C64.4659 34.5404 65.0771 34.3746 65.7193 34.3746C66.4652 34.3746 67.0142 34.5612 67.3457 34.9343C67.6875 35.3075 67.8533 35.888 67.8533 36.6759V40.2419H67.1903V39.3608C66.7241 40.0035 66.0715 40.3144 65.2221 40.3144C64.6834 40.3144 64.2587 40.159 63.9376 39.848C63.6164 39.537 63.4507 39.1223 63.4507 38.604C63.4507 38.0442 63.6579 37.5985 64.0619 37.2875C64.4659 36.9765 64.9838 36.8106 65.6364 36.8106C66.2891 36.8106 66.7967 36.9558 67.1903 37.246C67.1903 36.6448 67.1489 36.199 67.066 35.8777C66.9935 35.5667 66.8588 35.349 66.6516 35.2246C66.4445 35.1002 66.1233 35.0173 65.6882 34.9965C65.1599 34.9965 64.6316 35.1417 64.0722 35.4423ZM65.4293 39.6821C66.144 39.6821 66.7345 39.3815 67.1903 38.7699V37.8162C66.7759 37.5052 66.2787 37.3601 65.6986 37.3601C65.2635 37.3601 64.901 37.4637 64.6005 37.6814C64.3001 37.8991 64.1551 38.1894 64.1551 38.5625C64.1551 38.9046 64.2794 39.1742 64.5073 39.3815C64.7456 39.5784 65.0563 39.6821 65.4293 39.6821Z" fill="#034959"/>
<path d="M72.111 34.4782H73.8202V40.2315H73.1572V38.0857H71.7277L70.0806 40.2315H69.2622L71.075 37.9302C70.6918 37.868 70.3706 37.6918 70.1013 37.3912C69.832 37.0905 69.6973 36.7277 69.6973 36.3027C69.6973 35.7533 69.8941 35.3075 70.2981 34.9758C70.7021 34.6441 71.3029 34.4782 72.111 34.4782ZM70.4017 36.3131C70.4017 36.6551 70.5364 36.935 70.7954 37.1424C71.0543 37.3601 71.3444 37.4637 71.6344 37.4637H73.1572V35.1106H71.997C71.4687 35.1106 71.075 35.2142 70.8057 35.4319C70.5364 35.6496 70.4017 35.9399 70.4017 36.3131Z" fill="#034959"/>
<path d="M83.3092 38.9254L83.6407 39.4126C83.4128 39.7132 83.102 39.9413 82.7187 40.1071C82.3354 40.273 81.9211 40.3455 81.4756 40.3455C80.5848 40.3455 79.8493 40.076 79.2795 39.5266C78.7201 38.9772 78.4404 38.2619 78.4404 37.3601C78.4404 36.5204 78.7098 35.8051 79.2588 35.235C79.8078 34.6545 80.4915 34.3642 81.2995 34.3642C82.2836 34.3642 83.0295 34.6026 83.5371 35.0795L83.216 35.6185C82.7602 35.2039 82.1593 34.9965 81.4031 34.9965C80.7919 34.9965 80.2533 35.2246 79.8078 35.6704C79.3624 36.1161 79.1448 36.6759 79.1448 37.3601C79.1448 38.0753 79.3727 38.6455 79.8182 39.0809C80.274 39.5059 80.8437 39.7236 81.5274 39.7236C82.2629 39.7236 82.8638 39.454 83.3092 38.9254Z" fill="#034959"/>
<path d="M86.4893 35.1417H84.2V34.4782H89.4313V35.1417H87.1419V40.2315H86.479V35.1417H86.4893Z" fill="#034959"/>
<path d="M93.0155 40.3455C92.1349 40.3455 91.4098 40.0657 90.8401 39.5059C90.2807 38.9461 90.001 38.2308 90.001 37.3601C90.001 36.4893 90.2807 35.774 90.8401 35.2142C91.3995 34.6545 92.1246 34.3746 93.0155 34.3746C93.896 34.3746 94.6211 34.6545 95.1805 35.2142C95.7399 35.774 96.0196 36.4893 96.0196 37.3601C96.0196 38.2308 95.7399 38.9461 95.1805 39.5059C94.6211 40.0657 93.896 40.3455 93.0155 40.3455ZM93.0155 39.7236C93.7095 39.7236 94.2586 39.5059 94.6729 39.0705C95.108 38.6247 95.3255 38.0546 95.3255 37.3601C95.3255 36.6655 95.108 36.1057 94.6729 35.66C94.2378 35.2142 93.6888 34.9965 93.0155 34.9965C92.3525 34.9965 91.7931 35.2142 91.358 35.66C90.9229 36.1057 90.7054 36.6655 90.7054 37.3601C90.7054 38.0546 90.9229 38.6144 91.358 39.0601C91.7931 39.4955 92.3421 39.7236 93.0155 39.7236Z" fill="#034959"/>
<path d="M98.309 40.2315H97.646V34.4782H98.2675L100.65 37.6814L102.95 34.4782H103.551V40.2315H102.888V35.4941L100.65 38.604H100.609L98.2986 35.4941V40.2315H98.309Z" fill="#034959"/>
<path d="M105.768 35.4423L105.591 34.8929C106.161 34.5404 106.772 34.3746 107.415 34.3746C108.16 34.3746 108.71 34.5612 109.041 34.9343C109.383 35.3075 109.549 35.888 109.549 36.6759V40.2419H108.886V39.3608C108.419 40.0035 107.767 40.3144 106.917 40.3144C106.379 40.3144 105.954 40.159 105.633 39.848C105.312 39.537 105.146 39.1223 105.146 38.604C105.146 38.0442 105.353 37.5985 105.757 37.2875C106.161 36.9765 106.679 36.8106 107.332 36.8106C107.984 36.8106 108.492 36.9558 108.886 37.246C108.886 36.6448 108.844 36.199 108.761 35.8777C108.689 35.5667 108.554 35.349 108.347 35.2246C108.14 35.1002 107.819 35.0173 107.384 34.9965C106.855 34.9965 106.317 35.1417 105.768 35.4423ZM107.125 39.6821C107.839 39.6821 108.43 39.3815 108.886 38.7699V37.8162C108.471 37.5052 107.974 37.3601 107.394 37.3601C106.959 37.3601 106.596 37.4637 106.296 37.6814C105.995 37.8991 105.85 38.1894 105.85 38.5625C105.85 38.9046 105.975 39.1742 106.203 39.3815C106.441 39.5784 106.752 39.6821 107.125 39.6821Z" fill="#034959"/>
<path d="M112.895 35.1417H110.605V34.4782H115.837V35.1417H113.547V40.2315H112.884V35.1417H112.895Z" fill="#034959"/>
<path d="M119.41 40.3455C118.53 40.3455 117.805 40.0657 117.235 39.5059C116.676 38.9461 116.396 38.2308 116.396 37.3601C116.396 36.4893 116.676 35.774 117.235 35.2142C117.794 34.6545 118.52 34.3746 119.41 34.3746C120.291 34.3746 121.016 34.6545 121.576 35.2142C122.135 35.774 122.415 36.4893 122.415 37.3601C122.415 38.2308 122.135 38.9461 121.576 39.5059C121.027 40.0657 120.301 40.3455 119.41 40.3455ZM119.41 39.7236C120.105 39.7236 120.654 39.5059 121.068 39.0705C121.503 38.6247 121.721 38.0546 121.721 37.3601C121.721 36.6655 121.503 36.1057 121.068 35.66C120.633 35.2142 120.084 34.9965 119.41 34.9965C118.748 34.9965 118.188 35.2142 117.753 35.66C117.318 36.1057 117.1 36.6655 117.1 37.3601C117.1 38.0546 117.318 38.6144 117.753 39.0601C118.188 39.4955 118.748 39.7236 119.41 39.7236Z" fill="#034959"/>
<path d="M128.506 40.2315H127.843V35.1417H125.419L125.346 36.396C125.232 38.0131 124.963 39.0912 124.538 39.6199C124.196 40.0657 123.772 40.2833 123.274 40.2833L123.223 39.6303C123.44 39.6303 123.658 39.5266 123.844 39.3193C124.31 38.8839 124.6 37.868 124.704 36.2612L124.797 34.4679H128.516V40.2315H128.506Z" fill="#034959"/>
<path d="M133.126 40.3455C132.245 40.3455 131.52 40.0657 130.95 39.5059C130.391 38.9461 130.111 38.2308 130.111 37.3601C130.111 36.4893 130.391 35.774 130.95 35.2142C131.51 34.6545 132.235 34.3746 133.126 34.3746C134.006 34.3746 134.731 34.6545 135.291 35.2142C135.85 35.774 136.13 36.4893 136.13 37.3601C136.13 38.2308 135.85 38.9461 135.291 39.5059C134.731 40.0657 134.006 40.3455 133.126 40.3455ZM133.126 39.7236C133.82 39.7236 134.369 39.5059 134.783 39.0705C135.218 38.6247 135.436 38.0546 135.436 37.3601C135.436 36.6655 135.218 36.1057 134.783 35.66C134.348 35.2142 133.799 34.9965 133.126 34.9965C132.463 34.9965 131.903 35.2142 131.468 35.66C131.033 36.1057 130.816 36.6655 130.816 37.3601C130.816 38.0546 131.033 38.6144 131.468 39.0601C131.903 39.4955 132.452 39.7236 133.126 39.7236Z" fill="#034959"/>
<path d="M138.419 40.2315H137.756V34.4782H141.216V35.1002H138.419V40.2315Z" fill="#034959"/>
<path d="M146.759 35.4423L142.926 40.2315H142.263V34.4782H142.926V39.2674L146.759 34.4782H147.422V40.2315H146.759V35.4423Z" fill="#034959"/>
<path d="M151.803 34.4782H153.513V40.2315H152.85V38.0857H151.42L149.773 40.2315H148.955L150.767 37.9302C150.384 37.868 150.063 37.6918 149.794 37.3912C149.524 37.0905 149.39 36.7277 149.39 36.3027C149.39 35.7533 149.586 35.3075 149.99 34.9758C150.395 34.6441 150.995 34.4782 151.803 34.4782ZM150.094 36.3131C150.094 36.6551 150.229 36.935 150.488 37.1424C150.747 37.3497 151.037 37.4637 151.327 37.4637H152.85V35.1106H151.689C151.161 35.1106 150.767 35.2142 150.498 35.4319C150.229 35.6496 150.094 35.9399 150.094 36.3131Z" fill="#034959"/>
<path d="M158.526 40.2315V34.4782C158.806 34.4782 159.075 34.4782 159.345 34.4679C159.894 34.4471 160.236 34.4368 160.381 34.4368C161.966 34.4368 162.753 34.9343 162.753 35.9191C162.753 36.2509 162.649 36.5411 162.442 36.7795C162.235 37.018 161.955 37.1735 161.593 37.2357V37.2564C162.515 37.3912 162.97 37.8576 162.97 38.6351C162.97 39.7132 162.111 40.2626 160.401 40.2626C160.287 40.2626 159.956 40.2522 159.397 40.2419C159.117 40.2315 158.827 40.2315 158.526 40.2315ZM160.453 35.0691C160.173 35.0691 159.749 35.0795 159.189 35.0898V37.0283H160.712C161.126 37.0283 161.458 36.935 161.696 36.7588C161.935 36.5722 162.048 36.3338 162.048 36.0228C162.048 35.3905 161.52 35.0691 160.453 35.0691ZM160.577 37.5881H159.2V39.6199C159.863 39.6406 160.298 39.6406 160.495 39.6406C161.686 39.6406 162.287 39.2882 162.287 38.5833C162.266 37.9198 161.707 37.5881 160.577 37.5881Z" fill="#034959"/>
<path d="M167.352 35.7636C167.352 34.4575 167.777 33.369 168.626 32.4983C169.476 31.6171 170.543 31.1818 171.827 31.1818C173.102 31.1818 174.169 31.6171 175.018 32.4879C175.878 33.3483 176.303 34.4471 176.303 35.774C176.303 37.0802 175.867 38.1686 175.018 39.0601C174.169 39.9309 173.102 40.3663 171.827 40.3663C170.553 40.3663 169.486 39.9309 168.626 39.0705C167.777 38.1997 167.352 37.1009 167.352 35.7636ZM168.088 35.7636C168.088 36.8728 168.44 37.8058 169.165 38.5625C169.89 39.3089 170.781 39.6821 171.838 39.6821C172.925 39.6821 173.816 39.3089 174.521 38.5625C175.225 37.8058 175.577 36.8728 175.577 35.7636C175.577 34.6337 175.215 33.7008 174.49 32.9648C173.775 32.2184 172.894 31.8452 171.838 31.8452C170.771 31.8452 169.88 32.2184 169.165 32.9648C168.45 33.7008 168.088 34.6337 168.088 35.7636Z" fill="#034959"/>
<path d="M177.224 41.6828H176.603V39.5992H177.318C177.535 39.3193 177.732 38.8632 177.908 38.2308C178.084 37.5985 178.198 36.8936 178.25 36.0954L178.343 34.4679H182.01V39.5888H182.963V41.6724H182.342V40.2108H177.235V41.6828H177.224ZM178.954 35.1106L178.882 36.3649C178.809 37.1527 178.695 37.8265 178.53 38.407C178.364 38.9668 178.198 39.3711 178.022 39.6095H181.337V35.1106H178.954Z" fill="#034959"/>
<path d="M188.671 35.4423L184.838 40.2315H184.175V34.4782H184.838V39.2674L188.671 34.4782H189.334V40.2315H188.671V35.4423Z" fill="#034959"/>
<path d="M196.409 40.2315H195.747V37.6296H192.017V40.2315H191.354V34.4782H192.017V36.9972H195.747V34.4782H196.409V40.2315Z" fill="#034959"/>
<path d="M203.713 40.2315H198.429V34.4782H199.092V39.5992H202.718V34.4782H203.381V39.5992H204.334V41.6828H203.713V40.2315Z" fill="#034959"/>
<path d="M208.167 40.3455C207.287 40.3455 206.561 40.0657 205.992 39.5059C205.432 38.9461 205.153 38.2308 205.153 37.3601C205.153 36.4893 205.432 35.774 205.992 35.2142C206.551 34.6545 207.276 34.3746 208.167 34.3746C209.048 34.3746 209.773 34.6545 210.332 35.2142C210.892 35.774 211.171 36.4893 211.171 37.3601C211.171 38.2308 210.892 38.9461 210.332 39.5059C209.773 40.0657 209.048 40.3455 208.167 40.3455ZM208.167 39.7236C208.861 39.7236 209.41 39.5059 209.825 39.0705C210.26 38.6247 210.477 38.0546 210.477 37.3601C210.477 36.6655 210.26 36.1057 209.825 35.66C209.389 35.2142 208.84 34.9965 208.167 34.9965C207.504 34.9965 206.945 35.2142 206.51 35.66C206.075 36.1057 205.857 36.6655 205.857 37.3601C205.857 38.0546 206.075 38.6144 206.51 39.0601C206.934 39.4955 207.494 39.7236 208.167 39.7236Z" fill="#034959"/>
<path d="M212.797 40.2315V34.4782C213.077 34.4782 213.347 34.4782 213.616 34.4679C214.165 34.4471 214.507 34.4368 214.652 34.4368C216.237 34.4368 217.024 34.9343 217.024 35.9191C217.024 36.2509 216.92 36.5411 216.713 36.7795C216.506 37.018 216.226 37.1735 215.864 37.2357V37.2564C216.786 37.3912 217.242 37.8576 217.242 38.6351C217.242 39.7132 216.382 40.2626 214.672 40.2626C214.559 40.2626 214.227 40.2522 213.668 40.2419C213.388 40.2315 213.098 40.2315 212.797 40.2315ZM214.724 35.0691C214.445 35.0691 214.02 35.0795 213.46 35.0898V37.0283H214.983C215.398 37.0283 215.729 36.935 215.967 36.7588C216.206 36.5722 216.32 36.3338 216.32 36.0228C216.32 35.3905 215.791 35.0691 214.724 35.0691ZM214.838 37.5881H213.46V39.6199C214.123 39.6406 214.559 39.6406 214.755 39.6406C215.947 39.6406 216.547 39.2882 216.547 38.5833C216.537 37.9198 215.978 37.5881 214.838 37.5881Z" fill="#034959"/>
<path d="M221.541 40.3455C220.66 40.3455 219.935 40.0657 219.365 39.5059C218.806 38.9461 218.526 38.2308 218.526 37.3601C218.526 36.4893 218.806 35.774 219.365 35.2142C219.925 34.6545 220.65 34.3746 221.541 34.3746C222.421 34.3746 223.146 34.6545 223.706 35.2142C224.265 35.774 224.545 36.4893 224.545 37.3601C224.545 38.2308 224.265 38.9461 223.706 39.5059C223.157 40.0657 222.431 40.3455 221.541 40.3455ZM221.541 39.7236C222.235 39.7236 222.784 39.5059 223.198 39.0705C223.633 38.6247 223.851 38.0546 223.851 37.3601C223.851 36.6655 223.633 36.1057 223.198 35.66C222.763 35.2142 222.214 34.9965 221.541 34.9965C220.878 34.9965 220.318 35.2142 219.883 35.66C219.448 36.1057 219.231 36.6655 219.231 37.3601C219.231 38.0546 219.448 38.6144 219.883 39.0601C220.318 39.4955 220.867 39.7236 221.541 39.7236Z" fill="#034959"/>
</g>
<defs>
<clipPath id="clip0_705_183">
<rect width="231" height="45" fill="white"/>
</clipPath>
</defs>
</svg>
