<svg width="34" height="34" viewBox="0 0 34 34" fill="none" xmlns="http://www.w3.org/2000/svg">
<path d="M16.9983 1.48913C25.5635 1.48913 32.5077 8.43475 32.5077 17.0031C32.5077 25.5677 25.5671 32.5096 17.0069 32.5096H16.9922C8.42954 32.5109 1.48895 25.5677 1.48895 17.0043C1.48895 8.43598 8.43199 1.48913 16.9983 1.48913ZM16.9983 1C12.7249 1 8.70824 2.66425 5.68655 5.68707C2.66364 8.70988 1 12.7293 1 17.0043C1 21.2768 2.66364 25.2938 5.68289 28.3154C8.70335 31.337 12.7188 33 16.9898 33H17.0044C21.2754 33 25.2909 31.3357 28.3113 28.3154C31.3318 25.2938 32.9942 21.2768 32.9942 17.0043C32.9942 12.7293 31.3306 8.71111 28.3089 5.68829C25.2884 2.66548 21.2705 1 16.9983 1Z" fill="#4DA1BE" stroke="#4DA1BE" stroke-width="0.3"/>
<path d="M24.3189 22.1782C23.8129 23.3166 22.9485 24.0671 21.7384 24.4088C21.2998 24.5325 20.874 24.4256 20.4734 24.2558C14.9561 21.9204 10.9672 18.065 8.70928 12.5032C8.54695 12.1006 8.45208 11.6835 8.46684 11.2998C8.46894 9.86793 9.7339 8.54298 11.119 8.46751C11.5027 8.44655 11.8337 8.57655 12.1099 8.83231C13.0839 9.74007 13.8682 10.7925 14.4395 11.9895C14.7495 12.6394 14.6209 13.0986 14.0622 13.564C13.9736 13.6394 13.8766 13.7044 13.7818 13.7736C13.0397 14.3124 12.8731 14.8659 13.2294 15.7149C13.8113 17.109 14.7579 18.2055 16.0376 19.0147C16.5204 19.3208 17.0137 19.6101 17.5682 19.7715C18.0763 19.9183 18.4853 19.761 18.8121 19.3606C18.8479 19.3145 18.8838 19.2684 18.9175 19.2202C19.628 18.2411 20.3912 18.0713 21.4221 18.7065C22.3076 19.2516 23.1404 19.8742 23.931 20.5472C24.4643 21.0042 24.6014 21.5388 24.3189 22.1782Z" fill="#4DA1BE"/>
</svg>
