<svg width="34" height="34" viewBox="0 0 34 34" fill="none" xmlns="http://www.w3.org/2000/svg">
<path d="M17.0019 1.48915C25.5673 1.48915 32.5106 8.43504 32.5106 17.0037C32.5106 25.5686 25.5698 32.5109 17.0092 32.5109H16.9945C8.43276 32.5109 1.49312 25.5674 1.49312 17.0037C1.49189 8.43626 8.4352 1.48915 17.0019 1.48915ZM17.0019 1C12.7283 1 8.71147 2.66432 5.68966 5.68725C2.66786 8.71018 1.00415 12.7285 1.00415 17.0037C1.00415 21.2764 2.66785 25.2935 5.68722 28.3152C8.7078 31.3369 12.7234 33 16.9945 33H17.0092C21.2803 33 25.2959 31.3357 28.3165 28.3152C31.3371 25.2935 32.9996 21.2764 32.9996 17.0037C32.9996 12.7285 31.3359 8.71018 28.3141 5.68725C25.2923 2.66554 21.2742 1 17.0019 1Z" fill="#4DA1BE" stroke="#4DA1BE" stroke-width="0.3"/>
<path d="M23.4869 10.6496L8.75555 16.2296C7.94998 16.4619 7.97565 17.258 8.57097 17.45L12.2614 18.6019L13.6733 22.9333C13.8445 23.4078 13.985 23.5863 14.2784 23.59C14.5865 23.5937 14.705 23.4812 15.0241 23.1987C15.3994 22.8465 15.969 22.2925 16.8712 21.4157L20.7108 24.254C21.4173 24.6441 21.9271 24.4423 22.1031 23.5973L24.51 11.6866C24.7704 10.6521 24.1629 10.3427 23.4869 10.6496ZM12.8421 18.3378L21.234 13.0709C21.6471 12.7933 21.7767 13.1027 21.5909 13.3167L14.6268 19.5839L14.2699 22.712L12.8421 18.3378Z" fill="#4DA1BE"/>
</svg>
