<svg width="34" height="34" viewBox="0 0 34 34" fill="none" xmlns="http://www.w3.org/2000/svg">
<path d="M17.0012 1.48922C25.5679 1.48922 32.5134 8.4361 32.5134 17.006C32.5134 25.5721 25.5716 32.5153 17.0098 32.5153H16.9951C8.43089 32.5166 1.48903 25.5721 1.48903 17.0072C1.48903 8.43732 8.43333 1.48922 17.0012 1.48922ZM17.0012 1C12.7271 1 8.70964 2.66456 5.6874 5.68792C2.66394 8.71128 1 12.7314 1 17.0072C1 21.2805 2.66394 25.2982 5.68373 28.3203C8.70475 31.3425 12.7209 33.0058 16.9927 33.0058H17.0073C21.2791 33.0058 25.2953 31.3412 28.3163 28.3203C31.3373 25.2982 33 21.2805 33 17.0072C33 12.7314 31.3361 8.7125 28.3138 5.68914C25.2928 2.66578 21.2742 1 17.0012 1Z" fill="#4DA1BE" stroke="#4DA1BE" stroke-width="0.3"/>
<path d="M22.5738 10.8614C21.9747 10.3489 21.2705 10.0395 20.5162 9.8426C18.6187 9.34604 16.6956 9.22251 14.7529 9.48669C13.7675 9.62 12.8163 9.88051 11.9409 10.3722C10.9127 10.9494 10.2061 11.7799 9.89311 12.9332C9.6706 13.7551 9.56179 14.5917 9.52022 15.4405C9.45787 16.6916 9.49821 17.933 9.81853 19.1536C10.189 20.565 10.9934 21.6058 12.3737 22.1586C12.5241 22.2186 12.6659 22.3017 12.8151 22.3641C12.9532 22.4216 12.996 22.5133 12.9948 22.6625C12.9875 23.6385 12.9911 24.6157 12.9911 25.6357C13.353 25.2859 13.6037 25.0291 13.7858 24.8224C14.3287 24.2085 14.8434 23.6972 15.4094 23.1126C15.6967 22.8166 15.5757 22.8313 16.0207 22.8386C16.5452 22.8472 17.368 22.868 17.8888 22.8276C18.8828 22.7494 19.8682 22.6234 20.8267 22.3347C22.0444 21.9691 23.02 21.3172 23.5152 20.0844C23.6472 19.7566 23.7731 19.4288 23.8563 19.0863C24.3319 17.1258 24.2683 15.1616 23.871 13.1998C23.6863 12.2887 23.2963 11.479 22.5738 10.8614ZM16.522 12.0502C16.533 11.8618 16.6406 11.7885 16.8178 11.797C18.3302 11.8692 19.4684 12.3192 20.3438 13.4983C20.8573 14.1893 21.1336 15.1225 21.1617 15.9884C21.1617 16.1168 21.1678 16.2464 21.1605 16.3749C21.1519 16.518 21.0896 16.628 20.9282 16.6293C20.7656 16.6305 20.6861 16.5424 20.6751 16.3773C20.6323 15.7389 20.5088 15.1176 20.2655 14.5232C19.7936 13.3723 18.8877 12.7522 17.7238 12.4538C17.4157 12.3743 17.1052 12.3095 16.7873 12.2838C16.6418 12.2716 16.511 12.241 16.522 12.0502ZM18.0478 13.6573C17.7409 13.5496 17.4291 13.4628 17.1052 13.4163C16.9487 13.3931 16.8374 13.3111 16.8655 13.1277C16.8924 12.9552 17.0049 12.8867 17.1712 12.9026C18.2263 13.0029 19.0515 13.387 19.6188 14.3018C19.8841 14.7299 20.0406 15.3353 20.0174 15.7902C20.0002 16.1119 19.9513 16.1951 19.7679 16.1902C19.5002 16.1828 19.5393 15.9627 19.5185 15.8C19.4868 15.5505 19.433 15.3071 19.3645 15.065C19.1689 14.3678 18.7324 13.897 18.0478 13.6573ZM18.9403 15.438C18.9305 15.5273 18.9293 15.5897 18.9158 15.6472C18.8877 15.7646 18.8156 15.8355 18.6872 15.8379C18.5576 15.8404 18.4879 15.7633 18.4537 15.6508C18.4304 15.5738 18.4243 15.4918 18.4084 15.4111C18.3265 14.9855 18.0832 14.7066 17.6602 14.5929C17.6076 14.5794 17.5538 14.5709 17.5025 14.5574C17.3692 14.5207 17.203 14.5171 17.1968 14.3226C17.192 14.1611 17.3154 14.0645 17.5367 14.0511C17.6871 14.0413 17.9206 14.1159 18.0563 14.182C18.6126 14.4547 18.8718 14.8351 18.9403 15.438ZM21.1629 19.9217C20.8695 20.5858 20.3682 21.0236 19.6665 21.223C19.4122 21.2952 19.1652 21.2328 18.9329 21.1337C15.7334 19.7713 13.4203 17.5221 12.1109 14.2773C12.0167 14.0425 11.9617 13.7991 11.9703 13.5753C11.9715 12.74 12.7051 11.967 13.5083 11.923C13.7308 11.9107 13.9228 11.9866 14.0829 12.1358C14.6478 12.6654 15.1026 13.2793 15.4339 13.9777C15.6136 14.3568 15.539 14.6247 15.215 14.8962C15.1637 14.9402 15.1074 14.9781 15.0524 15.0185C14.6221 15.3328 14.5255 15.6557 14.7321 16.151C15.0695 16.9644 15.6185 17.604 16.3606 18.0761C16.6406 18.2547 16.9267 18.4235 17.2482 18.5176C17.5428 18.6032 17.78 18.5115 17.9695 18.2779C17.9903 18.251 18.0111 18.2241 18.0307 18.196C18.4427 17.6248 18.8852 17.5257 19.4831 17.8963C19.9966 18.2143 20.4795 18.5776 20.938 18.9702C21.2473 19.2368 21.3267 19.5487 21.1629 19.9217Z" fill="#4DA1BE"/>
</svg>
