<svg width="34" height="34" viewBox="0 0 34 34" fill="none" xmlns="http://www.w3.org/2000/svg">
<path d="M16.9958 1.48922C25.5625 1.48922 32.5068 8.4361 32.5068 17.006V17.0133C32.5068 25.5795 25.565 32.5227 17.0032 32.5227H16.9885C8.42551 32.5227 1.48488 25.5783 1.48488 17.0133V17.006C1.48366 8.4361 8.42796 1.48922 16.9958 1.48922ZM16.9958 1C12.7217 1 8.70426 2.66456 5.68202 5.68792C2.65979 8.71128 0.99585 12.7302 0.99585 17.006V17.0133C0.99585 21.2866 2.65979 25.3043 5.67958 28.3264C8.70059 31.3486 12.7168 33.0119 16.9885 33.0119H17.0032C21.2749 33.0119 25.2911 31.3473 28.3121 28.3264C31.3331 25.3055 32.9959 21.2866 32.9959 17.0133V17.006C32.9959 12.7302 31.3319 8.71128 28.3097 5.68792C25.2874 2.66456 21.2688 1 16.9958 1Z" fill="#4DA1BE" stroke="#4DA1BE" stroke-width="0.3"/>
<path fill-rule="evenodd" clip-rule="evenodd" d="M16.4176 23.1163H17.5938C17.5938 23.1163 17.9483 23.0771 18.1305 22.8814C18.298 22.7017 18.2919 22.3653 18.2919 22.3653C18.2919 22.3653 18.2686 20.7876 19.001 20.554C19.7235 20.3253 20.6502 22.0791 21.632 22.7542C22.3753 23.2643 22.9389 23.153 22.9389 23.153L25.5662 23.1163C25.5662 23.1163 26.9404 23.0319 26.2888 21.9507C26.235 21.8627 25.9086 21.1508 24.3351 19.6893C22.6871 18.1593 22.9083 18.4076 24.8926 15.7609C26.1005 14.1489 26.5847 13.1656 26.4331 12.7449C26.2888 12.3437 25.4 12.4489 25.4 12.4489L22.4413 12.4672C22.4413 12.4672 22.2225 12.4379 22.0599 12.5345C21.9009 12.6299 21.7995 12.8525 21.7995 12.8525C21.7995 12.8525 21.3312 14.0988 20.7065 15.1604C19.3897 17.3973 18.8628 17.516 18.6476 17.3778C18.1464 17.0536 18.2723 16.0764 18.2723 15.383C18.2723 13.2145 18.6012 12.3107 17.6317 12.0759C17.3101 11.9988 17.0729 11.9474 16.2514 11.9389C15.1963 11.9279 14.3026 11.9426 13.7964 12.1896C13.4602 12.3547 13.1998 12.7216 13.3587 12.7424C13.5543 12.7681 13.9969 12.8623 14.2316 13.1815C14.5348 13.5937 14.5238 14.5207 14.5238 14.5207C14.5238 14.5207 14.6974 17.0732 14.1167 17.39C13.7182 17.6077 13.1704 17.1637 11.9968 15.1335C11.3952 14.0939 10.9404 12.9442 10.9404 12.9442C10.9404 12.9442 10.8524 12.729 10.6971 12.614C10.5076 12.4746 10.2423 12.4305 10.2423 12.4305L7.43161 12.4489C7.43161 12.4489 7.00982 12.4611 6.85455 12.6446C6.7164 12.8085 6.84355 13.146 6.84355 13.146C6.84355 13.146 9.0442 18.2963 11.5358 20.8928C13.8233 23.2728 16.4176 23.1163 16.4176 23.1163Z" fill="#4DA1BE"/>
</svg>
