<svg width="34" height="34" viewBox="0 0 34 34" fill="none" xmlns="http://www.w3.org/2000/svg">
<path d="M17 1.48922C25.5667 1.48922 32.511 8.43609 32.511 17.0059C32.511 25.5721 25.5691 32.5153 17.0073 32.5153H16.9927C8.42966 32.5153 1.48903 25.5709 1.48903 17.0059C1.48903 8.43732 8.43333 1.48922 17 1.48922ZM17 1C12.7258 1 8.70841 2.66455 5.68618 5.68791C2.66394 8.71127 1 12.7302 1 17.0059C1 21.2793 2.66394 25.2969 5.68373 28.3191C8.70475 31.3412 12.7209 33.0046 16.9927 33.0046H17.0073C21.2791 33.0046 25.2953 31.34 28.3163 28.3191C31.3373 25.2969 33 21.2793 33 17.0059C33 12.7302 31.3361 8.71127 28.3138 5.68791C25.2928 2.66578 21.2742 1 17 1Z" fill="#4DA1BE" stroke="#4DA1BE" stroke-width="0.3"/>
<path fill-rule="evenodd" clip-rule="evenodd" d="M17.143 9.05985C12.8713 9.05985 9.40767 12.5247 9.40767 16.798C9.40767 18.2596 9.81357 19.6269 10.5178 20.7937L9.12158 24.9447L13.4043 23.5737C14.5132 24.1864 15.7871 24.5362 17.143 24.5362C21.4159 24.5362 24.8783 21.0713 24.8783 16.798C24.8795 12.5247 21.4159 9.05985 17.143 9.05985ZM17.143 23.2398C15.8348 23.2398 14.6171 22.8472 13.5999 22.1745L11.1254 22.9671L11.9299 20.5748C11.1584 19.5132 10.7036 18.2082 10.7036 16.798C10.7036 13.2463 13.5926 10.3563 17.143 10.3563C20.6946 10.3563 23.5823 13.2463 23.5823 16.798C23.5836 20.351 20.6946 23.2398 17.143 23.2398ZM20.7704 18.5568C20.576 18.4504 19.6236 17.9367 19.4451 17.8633C19.2666 17.7911 19.1358 17.7532 18.9964 17.9453C18.857 18.1373 18.4622 18.5678 18.3423 18.6962C18.2225 18.8234 18.1064 18.8356 17.912 18.7292C17.7188 18.6228 17.0904 18.3904 16.3605 17.6896C15.7932 17.1441 15.4216 16.4825 15.3128 16.2807C15.2052 16.0789 15.3115 15.9762 15.4142 15.8808C15.5059 15.7951 15.6209 15.6569 15.7236 15.5456C15.8263 15.4343 15.8629 15.3536 15.9338 15.224C16.0047 15.0943 15.9766 14.9781 15.9302 14.8779C15.8849 14.7776 15.5255 13.7906 15.3763 13.3894C15.2272 12.9883 15.0597 13.0482 14.9448 13.0433C14.8298 13.0396 14.699 13.0176 14.567 13.0127C14.4349 13.0078 14.2198 13.0494 14.0315 13.2402C13.8432 13.431 13.3151 13.8896 13.2784 14.862C13.2417 15.833 13.9141 16.7993 14.0083 16.935C14.1024 17.0708 15.292 19.1768 17.2689 20.044C19.2471 20.9099 19.2568 20.6457 19.6199 20.6262C19.983 20.6066 20.8059 20.192 20.988 19.737C21.1702 19.282 21.1848 18.887 21.1384 18.8026C21.0932 18.717 20.9636 18.6632 20.7704 18.5568Z" fill="#4DA1BE"/>
</svg>
