<svg width="231" height="45" viewBox="0 0 231 45" fill="none" xmlns="http://www.w3.org/2000/svg">
<g clip-path="url(#clip0_705_544)">
<path d="M34.0725 7.91992V8.98765H25.3606V14.8964H31.1927V15.9642H25.3606V23.376H34.0725V24.4438H22.574V7.91992H34.0725Z" fill="white"/>
<path d="M61.5033 24.8378C60.2188 24.8378 59.0275 24.6098 57.9191 24.1536C56.8107 23.6975 55.8473 23.0756 55.0289 22.2774C54.2105 21.4791 53.5683 20.5565 53.1021 19.4992C52.636 18.4418 52.3977 17.3015 52.3977 16.0991C52.3977 15.3112 52.5013 14.5441 52.7188 13.8185C52.926 13.0825 53.2368 12.4087 53.6201 11.7763C54.0137 11.144 54.4799 10.5635 55.0393 10.0451C55.5883 9.52683 56.1995 9.08108 56.8728 8.7079C57.5462 8.33471 58.2713 8.05482 59.0482 7.8475C59.8252 7.64017 60.6435 7.54688 61.5033 7.54688C62.3631 7.54688 63.1815 7.65054 63.9584 7.8475C64.7354 8.05482 65.4709 8.33471 66.1442 8.7079C66.8175 9.08108 67.4391 9.52683 67.9777 10.0451C68.5268 10.5635 68.9929 11.144 69.3969 11.7763C69.7906 12.4087 70.091 13.0928 70.3085 13.8185C70.5157 14.5545 70.6297 15.3112 70.6297 16.0991C70.6297 16.8973 70.5261 17.6644 70.3085 18.4107C70.1014 19.1571 69.7906 19.8516 69.3969 20.5047C69.0033 21.1578 68.5268 21.7487 67.9777 22.2774C67.4287 22.806 66.8175 23.2621 66.1442 23.6457C65.4709 24.0293 64.7354 24.3195 63.9584 24.5268C63.1815 24.7342 62.3631 24.8378 61.5033 24.8378ZM61.5033 24.0189C62.446 24.0189 63.2851 23.8219 64.0102 23.428C64.7354 23.0341 65.3465 22.4847 65.8438 21.7798C66.341 21.0749 66.7139 20.2352 66.9729 19.2711C67.2319 18.3071 67.3562 17.2497 67.3562 16.0991C67.3562 14.9588 67.2319 13.9221 66.9729 12.9684C66.7243 12.0251 66.341 11.2062 65.8438 10.522C65.3465 9.83782 64.7354 9.30914 64.0102 8.92559C63.2851 8.5524 62.446 8.35544 61.5033 8.35544C60.5399 8.35544 59.6905 8.54204 58.9654 8.92559C58.2402 9.30914 57.629 9.83782 57.1318 10.522C56.6346 11.2062 56.2616 12.0251 56.013 12.9684C55.7644 13.9118 55.6401 14.9588 55.6401 16.0991C55.6401 17.2497 55.7644 18.3071 56.013 19.2711C56.2616 20.2352 56.6346 21.0749 57.1318 21.7798C57.629 22.4847 58.2402 23.0341 58.9654 23.428C59.7009 23.8219 60.5399 24.0189 61.5033 24.0189Z" fill="white"/>
<path d="M89.4106 24.4538H83.8996C82.2007 24.4538 80.7504 24.2983 79.528 23.9769C78.3057 23.6556 77.2905 23.158 76.4721 22.4531C75.5398 21.6549 74.8457 20.7426 74.3692 19.706C73.9031 18.6797 73.6648 17.5498 73.6648 16.3266C73.6648 15.1656 73.872 14.0667 74.2967 13.0509C74.7111 12.0246 75.3326 11.1331 76.1406 10.3764C76.9486 9.61962 77.9535 9.01837 79.1447 8.57262C80.336 8.12687 81.7034 7.90918 83.2366 7.90918H89.4002V24.4538H89.4106ZM86.6343 9.12203H83.682C82.7497 9.12203 81.8795 9.27753 81.0508 9.57815C80.2324 9.88914 79.5073 10.3453 78.8961 10.9465C78.2849 11.5477 77.8084 12.3045 77.4459 13.1856C77.0833 14.0667 76.9175 15.093 76.9175 16.2644C76.9175 17.2907 77.0833 18.2236 77.4148 19.0737C77.7463 19.9237 78.2124 20.6597 78.8133 21.2713C79.4141 21.8829 80.1289 22.3598 80.9472 22.7019C81.7759 23.0439 82.6772 23.2098 83.6613 23.2098H86.624V9.12203H86.6343Z" fill="white"/>
<path d="M46.2651 7.91992C44.732 7.91992 43.3646 8.13761 42.1733 8.58336C40.982 9.01875 39.9772 9.61999 39.1692 10.3871C38.3612 11.1542 37.7396 12.0353 37.3253 13.0616C36.9109 14.0879 36.6934 15.1763 36.6934 16.3373C36.6934 17.5606 36.9316 18.6905 37.3978 19.7167C37.8639 20.743 38.5684 21.6656 39.5007 22.4638C40.319 23.1583 41.3342 23.6663 42.5566 23.9876C43.779 24.2986 45.2396 24.4645 46.9281 24.4645H49.7665L49.6526 23.2413H46.6899C45.7058 23.2413 44.8045 23.0754 43.9758 22.7333C43.1471 22.3912 42.4323 21.9144 41.8418 21.3028C41.241 20.6912 40.7748 19.9552 40.4433 19.1051C40.1119 18.2551 39.9461 17.3118 39.9461 16.2959C39.9461 15.1348 40.1222 14.1086 40.4744 13.2171C40.8266 12.3256 41.3135 11.5896 41.9247 10.978C42.5359 10.3664 43.2506 9.91025 44.0794 9.60963C44.8977 9.29864 45.7783 9.15351 46.7106 9.15351H49.6629C49.6629 9.15351 49.7769 9.4023 49.7769 7.94065H46.2651V7.91992Z" fill="white"/>
<path d="M14.3265 44.9997C11.7989 44.2015 9.41631 42.8642 7.37557 41.0812C5.34519 39.2879 3.66702 37.0695 2.46537 34.6127C1.23264 32.1766 0.507505 29.471 0.176015 26.7654C-0.124398 24.0391 -0.0518849 21.3231 0.331401 18.6071C1.14977 13.1959 3.80169 7.92987 8.13178 4.4779C12.4308 0.984469 18.0765 -0.373513 23.3182 0.0722364C18.0765 0.50762 12.9488 2.29062 9.18841 5.72186C7.32377 7.43229 5.78027 9.46408 4.66149 11.7343C3.51164 13.9941 2.74506 16.4095 2.3825 18.9389C1.63664 23.9769 1.91634 29.2637 3.926 33.9492C5.88386 38.6659 9.58205 42.6362 14.3265 44.9997Z" fill="white"/>
<path d="M160.691 7.91992C159.158 7.91992 157.791 8.13761 156.6 8.58336C155.408 9.01875 154.403 9.61999 153.595 10.3871C152.787 11.1542 152.166 12.0353 151.752 13.0616C151.337 14.0879 151.12 15.1763 151.12 16.3373C151.12 17.5606 151.358 18.6905 151.824 19.7167C152.29 20.743 152.995 21.6656 153.927 22.4638C154.745 23.1583 155.76 23.6663 156.983 23.9876C158.205 24.2986 159.666 24.4645 161.354 24.4645H164.193L164.079 23.2413H161.116C160.132 23.2413 159.231 23.0754 158.402 22.7333C157.573 22.3912 156.859 21.9144 156.268 21.3028C155.667 20.6912 155.201 19.9552 154.87 19.1051C154.538 18.2551 154.372 17.3118 154.372 16.2959C154.372 15.1348 154.548 14.1086 154.901 13.2171C155.253 12.3256 155.74 11.5896 156.351 10.978C156.962 10.3664 157.677 9.91025 158.506 9.60963C159.324 9.29864 160.205 9.15351 161.137 9.15351H164.089C164.089 9.15351 164.203 9.4023 164.203 7.94065H160.691V7.91992Z" fill="white"/>
<path d="M222.504 7.91992C220.971 7.91992 219.603 8.13761 218.412 8.58336C217.221 9.01875 216.216 9.61999 215.408 10.3871C214.6 11.1542 213.979 12.0353 213.564 13.0616C213.15 14.0879 212.932 15.1763 212.932 16.3373C212.932 17.5606 213.171 18.6905 213.637 19.7167C214.103 20.743 214.807 21.6656 215.74 22.4638C216.558 23.1583 217.573 23.6663 218.795 23.9876C220.018 24.2986 221.478 24.4645 223.167 24.4645H226.005L225.891 23.2413H222.929C221.945 23.2413 221.043 23.0754 220.215 22.7333C219.386 22.3912 218.671 21.9144 218.081 21.3028C217.48 20.6912 217.014 19.9552 216.682 19.1051C216.351 18.2551 216.185 17.3118 216.185 16.2959C216.185 15.1348 216.361 14.1086 216.713 13.2171C217.066 12.3256 217.552 11.5896 218.164 10.978C218.775 10.3664 219.49 9.91025 220.318 9.60963C221.137 9.29864 222.017 9.15351 222.949 9.15351H225.902C225.902 9.15351 226.016 9.4023 226.016 7.94065H222.504V7.91992Z" fill="white"/>
<path d="M104.639 7.91992V8.98765H95.9266V14.8964H101.759V15.9642H95.9266V23.376H104.639V24.4438H93.1504V7.91992H104.639Z" fill="white"/>
<path d="M107.912 7.91992H109.466L120.291 20.0174H120.415V7.91992H121.638V24.8377H120.985L109.259 11.3926H109.155V24.4541H107.902V7.91992H107.912Z" fill="white"/>
<path d="M139.808 7.91992V8.98765H133.83V24.4541H131.054V8.98765H125.077V7.91992H139.808Z" fill="white"/>
<path d="M167.207 7.91992H169.984V23.3864H178.312V24.4541H167.207V7.91992Z" fill="white"/>
<path d="M180.788 8.30371H183.564V24.8379H180.788V8.30371Z" fill="white"/>
<path d="M188.07 7.91992H189.624L200.45 20.0174H200.574V7.91992H201.796V24.8377H201.144L189.417 11.3926H189.313V24.4541H188.06V7.91992H188.07Z" fill="white"/>
<path d="M206.292 8.30371H209.068V24.8379H206.292V8.30371Z" fill="white"/>
<path d="M26.8522 38.9254L27.1837 39.4126C26.9558 39.7133 26.645 39.9413 26.2617 40.1072C25.8784 40.273 25.464 40.3456 25.0186 40.3456C24.1277 40.3456 23.3922 40.0761 22.8225 39.5267C22.2631 38.9772 21.9834 38.262 21.9834 37.3601C21.9834 36.5204 22.2527 35.8052 22.8018 35.235C23.3508 34.6545 24.0345 34.3643 24.8425 34.3643C25.8266 34.3643 26.5725 34.6027 27.0801 35.0795L26.7486 35.6186C26.2928 35.2039 25.6919 34.9966 24.9357 34.9966C24.3245 34.9966 23.7859 35.2247 23.3404 35.6704C22.895 36.1162 22.6775 36.6759 22.6775 37.3601C22.6775 38.0754 22.9054 38.6455 23.3508 39.0809C23.8066 39.5059 24.3763 39.7236 25.06 39.7236C25.7955 39.7236 26.3964 39.4541 26.8522 38.9254Z" fill="white"/>
<path d="M32.8708 39.0181L33.0884 39.5261C32.5704 40.0755 31.866 40.345 30.9648 40.345C30.0428 40.345 29.3073 40.0755 28.7583 39.5261C28.1989 38.9766 27.9192 38.2614 27.9192 37.3595C27.9192 36.4887 28.1782 35.7735 28.6858 35.2137C29.2037 34.6539 29.9185 34.374 30.8301 34.374C31.5656 34.374 32.1871 34.6124 32.6947 35.0893C33.192 35.5558 33.4302 36.1881 33.4302 36.9656C33.4302 37.1729 33.4199 37.3491 33.3888 37.5046H28.6547C28.6858 38.1992 28.9033 38.7382 29.328 39.1321C29.7527 39.5261 30.3121 39.723 30.9958 39.723C31.8142 39.723 32.4254 39.4846 32.8708 39.0181ZM30.7679 34.996C30.1567 34.996 29.6595 35.1722 29.2762 35.535C28.8929 35.8875 28.6754 36.3643 28.6236 36.9552H32.7569C32.7465 36.354 32.5704 35.8771 32.2078 35.5247C31.8556 35.1619 31.3688 34.996 30.7679 34.996Z" fill="white"/>
<path d="M35.6781 40.2318H35.0151V34.4785H35.6367L38.0193 37.6817L40.319 34.4785H40.9198V40.2318H40.2568V35.4944L38.0193 38.6043H37.9778L35.6678 35.4944V40.2318H35.6781Z" fill="white"/>
<path d="M47.4978 39.0181L47.7153 39.5261C47.1974 40.0755 46.4929 40.345 45.5917 40.345C44.6697 40.345 43.9343 40.0755 43.3852 39.5261C42.8258 38.9766 42.5461 38.2614 42.5461 37.3595C42.5461 36.4887 42.8051 35.7735 43.3127 35.2137C43.8307 34.6539 44.5454 34.374 45.457 34.374C46.1925 34.374 46.8141 34.6124 47.3217 35.0893C47.8189 35.5558 48.0572 36.1881 48.0572 36.9656C48.0572 37.1729 48.0468 37.3491 48.0157 37.5046H43.2816C43.3024 38.1992 43.5303 38.7382 43.955 39.1321C44.3797 39.5261 44.9391 39.723 45.6228 39.723C46.4412 39.723 47.0627 39.4846 47.4978 39.0181ZM45.3949 34.996C44.7837 34.996 44.2865 35.1722 43.9032 35.535C43.5199 35.8875 43.3024 36.3643 43.2506 36.9552H47.3838C47.3735 36.354 47.187 35.8771 46.8348 35.5247C46.4826 35.1722 45.9957 34.996 45.3949 34.996Z" fill="white"/>
<path d="M54.1379 35.4417L50.3051 40.231H49.6421V34.4777H50.3051V39.2669L54.1379 34.4777H54.8009V40.231H54.1379V35.4417ZM50.533 31.4922H51.1338C51.1338 31.8032 51.2477 32.0727 51.4653 32.2904C51.6828 32.5081 51.9729 32.6117 52.3251 32.6117C52.6566 32.6117 52.9259 32.4977 53.1435 32.2904C53.361 32.0727 53.4646 31.8032 53.4646 31.4922H54.0654C54.0654 31.9587 53.8997 32.3526 53.5785 32.6636C53.2574 32.9746 52.843 33.1301 52.3251 33.1301C51.7761 33.1301 51.341 32.9746 51.0198 32.6739C50.6884 32.3733 50.533 31.9794 50.533 31.4922Z" fill="white"/>
<path d="M61.8763 40.2318H61.2133V37.6299H57.484V40.2318H56.821V34.4785H57.484V36.9975H61.2133V34.4785H61.8763V40.2318Z" fill="white"/>
<path d="M64.0722 35.4417L63.8961 34.8923C64.4659 34.5399 65.0771 34.374 65.7193 34.374C66.4652 34.374 67.0142 34.5606 67.3457 34.9338C67.6875 35.307 67.8533 35.8875 67.8533 36.6753V40.2413H67.1903V39.3602C66.7241 40.0029 66.0715 40.3139 65.2221 40.3139C64.6834 40.3139 64.2587 40.1584 63.9376 39.8474C63.6164 39.5364 63.4507 39.1218 63.4507 38.6035C63.4507 38.0437 63.6579 37.5979 64.0619 37.2869C64.4659 36.976 64.9838 36.8101 65.6364 36.8101C66.2891 36.8101 66.7967 36.9552 67.1903 37.2455C67.1903 36.6442 67.1489 36.1985 67.066 35.8771C66.9935 35.5661 66.8588 35.3485 66.6516 35.2241C66.4445 35.0997 66.1233 35.0167 65.6882 34.996C65.1599 34.996 64.6316 35.1411 64.0722 35.4417ZM65.4293 39.6816C66.144 39.6816 66.7345 39.3809 67.1903 38.7693V37.8156C66.7759 37.5046 66.2787 37.3595 65.6986 37.3595C65.2635 37.3595 64.901 37.4632 64.6005 37.6809C64.3001 37.8986 64.1551 38.1888 64.1551 38.562C64.1551 38.9041 64.2794 39.1736 64.5073 39.3809C64.7456 39.5779 65.0563 39.6816 65.4293 39.6816Z" fill="white"/>
<path d="M72.111 34.4785H73.8202V40.2318H73.1572V38.086H71.7277L70.0806 40.2318H69.2622L71.075 37.9305C70.6918 37.8683 70.3706 37.6921 70.1013 37.3914C69.832 37.0908 69.6973 36.728 69.6973 36.303C69.6973 35.7536 69.8941 35.3078 70.2981 34.9761C70.7021 34.6444 71.3029 34.4785 72.111 34.4785ZM70.4017 36.3133C70.4017 36.6554 70.5364 36.9353 70.7954 37.1427C71.0543 37.3603 71.3444 37.464 71.6344 37.464H73.1572V35.1109H71.997C71.4687 35.1109 71.075 35.2145 70.8057 35.4322C70.5364 35.6499 70.4017 35.9402 70.4017 36.3133Z" fill="white"/>
<path d="M83.3092 38.9254L83.6407 39.4126C83.4128 39.7133 83.102 39.9413 82.7187 40.1072C82.3354 40.273 81.9211 40.3456 81.4756 40.3456C80.5848 40.3456 79.8493 40.0761 79.2795 39.5267C78.7201 38.9772 78.4404 38.262 78.4404 37.3601C78.4404 36.5204 78.7098 35.8052 79.2588 35.235C79.8078 34.6545 80.4915 34.3643 81.2995 34.3643C82.2836 34.3643 83.0295 34.6027 83.5371 35.0795L83.216 35.6186C82.7602 35.2039 82.1593 34.9966 81.4031 34.9966C80.7919 34.9966 80.2533 35.2247 79.8078 35.6704C79.3624 36.1162 79.1448 36.6759 79.1448 37.3601C79.1448 38.0754 79.3727 38.6455 79.8182 39.0809C80.274 39.5059 80.8437 39.7236 81.5274 39.7236C82.2629 39.7236 82.8638 39.4541 83.3092 38.9254Z" fill="white"/>
<path d="M86.4893 35.142H84.2V34.4785H89.4313V35.142H87.1419V40.2318H86.479V35.142H86.4893Z" fill="white"/>
<path d="M93.0155 40.345C92.1349 40.345 91.4098 40.0651 90.8401 39.5053C90.2807 38.9456 90.001 38.2303 90.001 37.3595C90.001 36.4887 90.2807 35.7735 90.8401 35.2137C91.3995 34.6539 92.1246 34.374 93.0155 34.374C93.896 34.374 94.6211 34.6539 95.1805 35.2137C95.7399 35.7735 96.0196 36.4887 96.0196 37.3595C96.0196 38.2303 95.7399 38.9456 95.1805 39.5053C94.6211 40.0651 93.896 40.345 93.0155 40.345ZM93.0155 39.723C93.7095 39.723 94.2586 39.5053 94.6729 39.0699C95.108 38.6242 95.3255 38.0541 95.3255 37.3595C95.3255 36.665 95.108 36.1052 94.6729 35.6594C94.2378 35.2137 93.6888 34.996 93.0155 34.996C92.3525 34.996 91.7931 35.2137 91.358 35.6594C90.9229 36.1052 90.7054 36.665 90.7054 37.3595C90.7054 38.0541 90.9229 38.6138 91.358 39.0596C91.7931 39.495 92.3421 39.723 93.0155 39.723Z" fill="white"/>
<path d="M98.309 40.2318H97.646V34.4785H98.2675L100.65 37.6817L102.95 34.4785H103.551V40.2318H102.888V35.4944L100.65 38.6043H100.609L98.2986 35.4944V40.2318H98.309Z" fill="white"/>
<path d="M105.768 35.4417L105.591 34.8923C106.161 34.5399 106.772 34.374 107.415 34.374C108.16 34.374 108.71 34.5606 109.041 34.9338C109.383 35.307 109.549 35.8875 109.549 36.6753V40.2413H108.886V39.3602C108.419 40.0029 107.767 40.3139 106.917 40.3139C106.379 40.3139 105.954 40.1584 105.633 39.8474C105.312 39.5364 105.146 39.1218 105.146 38.6035C105.146 38.0437 105.353 37.5979 105.757 37.2869C106.161 36.976 106.679 36.8101 107.332 36.8101C107.984 36.8101 108.492 36.9552 108.886 37.2455C108.886 36.6442 108.844 36.1985 108.761 35.8771C108.689 35.5661 108.554 35.3485 108.347 35.2241C108.14 35.0997 107.819 35.0167 107.384 34.996C106.855 34.996 106.317 35.1411 105.768 35.4417ZM107.125 39.6816C107.839 39.6816 108.43 39.3809 108.886 38.7693V37.8156C108.471 37.5046 107.974 37.3595 107.394 37.3595C106.959 37.3595 106.596 37.4632 106.296 37.6809C105.995 37.8986 105.85 38.1888 105.85 38.562C105.85 38.9041 105.975 39.1736 106.203 39.3809C106.441 39.5779 106.752 39.6816 107.125 39.6816Z" fill="white"/>
<path d="M112.895 35.142H110.605V34.4785H115.837V35.142H113.547V40.2318H112.884V35.142H112.895Z" fill="white"/>
<path d="M119.41 40.345C118.53 40.345 117.805 40.0651 117.235 39.5053C116.676 38.9456 116.396 38.2303 116.396 37.3595C116.396 36.4887 116.676 35.7735 117.235 35.2137C117.794 34.6539 118.52 34.374 119.41 34.374C120.291 34.374 121.016 34.6539 121.576 35.2137C122.135 35.7735 122.415 36.4887 122.415 37.3595C122.415 38.2303 122.135 38.9456 121.576 39.5053C121.027 40.0651 120.301 40.345 119.41 40.345ZM119.41 39.723C120.105 39.723 120.654 39.5053 121.068 39.0699C121.503 38.6242 121.721 38.0541 121.721 37.3595C121.721 36.665 121.503 36.1052 121.068 35.6594C120.633 35.2137 120.084 34.996 119.41 34.996C118.748 34.996 118.188 35.2137 117.753 35.6594C117.318 36.1052 117.1 36.665 117.1 37.3595C117.1 38.0541 117.318 38.6138 117.753 39.0596C118.188 39.495 118.748 39.723 119.41 39.723Z" fill="white"/>
<path d="M128.506 40.2314H127.843V35.1416H125.419L125.346 36.3959C125.232 38.013 124.963 39.0911 124.538 39.6198C124.196 40.0656 123.772 40.2833 123.274 40.2833L123.223 39.6302C123.44 39.6302 123.658 39.5265 123.844 39.3192C124.31 38.8838 124.6 37.8679 124.704 36.2611L124.797 34.4678H128.516V40.2314H128.506Z" fill="white"/>
<path d="M133.126 40.345C132.245 40.345 131.52 40.0651 130.95 39.5053C130.391 38.9456 130.111 38.2303 130.111 37.3595C130.111 36.4887 130.391 35.7735 130.95 35.2137C131.51 34.6539 132.235 34.374 133.126 34.374C134.006 34.374 134.731 34.6539 135.291 35.2137C135.85 35.7735 136.13 36.4887 136.13 37.3595C136.13 38.2303 135.85 38.9456 135.291 39.5053C134.731 40.0651 134.006 40.345 133.126 40.345ZM133.126 39.723C133.82 39.723 134.369 39.5053 134.783 39.0699C135.218 38.6242 135.436 38.0541 135.436 37.3595C135.436 36.665 135.218 36.1052 134.783 35.6594C134.348 35.2137 133.799 34.996 133.126 34.996C132.463 34.996 131.903 35.2137 131.468 35.6594C131.033 36.1052 130.816 36.665 130.816 37.3595C130.816 38.0541 131.033 38.6138 131.468 39.0596C131.903 39.495 132.452 39.723 133.126 39.723Z" fill="white"/>
<path d="M138.419 40.2318H137.756V34.4785H141.216V35.1005H138.419V40.2318Z" fill="white"/>
<path d="M146.759 35.4426L142.926 40.2318H142.263V34.4785H142.926V39.2677L146.759 34.4785H147.422V40.2318H146.759V35.4426Z" fill="white"/>
<path d="M151.803 34.4785H153.513V40.2318H152.85V38.086H151.42L149.773 40.2318H148.955L150.767 37.9305C150.384 37.8683 150.063 37.6921 149.794 37.3914C149.524 37.0908 149.39 36.728 149.39 36.303C149.39 35.7536 149.586 35.3078 149.99 34.9761C150.395 34.6444 150.995 34.4785 151.803 34.4785ZM150.094 36.3133C150.094 36.6554 150.229 36.9353 150.488 37.1427C150.747 37.35 151.037 37.464 151.327 37.464H152.85V35.1109H151.689C151.161 35.1109 150.767 35.2145 150.498 35.4322C150.229 35.6499 150.094 35.9402 150.094 36.3133Z" fill="white"/>
<path d="M158.526 40.2313V34.478C158.806 34.478 159.075 34.478 159.345 34.4676C159.894 34.4469 160.236 34.4365 160.381 34.4365C161.966 34.4365 162.753 34.9341 162.753 35.9189C162.753 36.2506 162.649 36.5409 162.442 36.7793C162.235 37.0177 161.955 37.1732 161.593 37.2354V37.2561C162.515 37.3909 162.97 37.8574 162.97 38.6349C162.97 39.713 162.111 40.2624 160.401 40.2624C160.287 40.2624 159.956 40.252 159.397 40.2416C159.117 40.2313 158.827 40.2313 158.526 40.2313ZM160.453 35.0689C160.173 35.0689 159.749 35.0792 159.189 35.0896V37.0281H160.712C161.126 37.0281 161.458 36.9348 161.696 36.7586C161.935 36.572 162.048 36.3336 162.048 36.0226C162.048 35.3902 161.52 35.0689 160.453 35.0689ZM160.577 37.5879H159.2V39.6197C159.863 39.6404 160.298 39.6404 160.495 39.6404C161.686 39.6404 162.287 39.2879 162.287 38.583C162.266 37.9196 161.707 37.5879 160.577 37.5879Z" fill="white"/>
<path d="M167.352 35.7635C167.352 34.4574 167.777 33.3689 168.626 32.4982C169.476 31.617 170.543 31.1816 171.827 31.1816C173.102 31.1816 174.169 31.617 175.018 32.4878C175.878 33.3482 176.303 34.447 176.303 35.7739C176.303 37.08 175.867 38.1685 175.018 39.06C174.169 39.9308 173.102 40.3662 171.827 40.3662C170.553 40.3662 169.486 39.9308 168.626 39.0704C167.777 38.1996 167.352 37.1008 167.352 35.7635ZM168.088 35.7635C168.088 36.8727 168.44 37.8057 169.165 38.5624C169.89 39.3088 170.781 39.682 171.838 39.682C172.925 39.682 173.816 39.3088 174.521 38.5624C175.225 37.8057 175.577 36.8727 175.577 35.7635C175.577 34.6336 175.215 33.7006 174.49 32.9646C173.775 32.2183 172.894 31.8451 171.838 31.8451C170.771 31.8451 169.88 32.2183 169.165 32.9646C168.45 33.7006 168.088 34.6336 168.088 35.7635Z" fill="white"/>
<path d="M177.224 41.6827H176.603V39.5991H177.318C177.535 39.3192 177.732 38.8631 177.908 38.2307C178.084 37.5984 178.198 36.8935 178.25 36.0953L178.343 34.4678H182.01V39.5887H182.963V41.6723H182.342V40.2107H177.235V41.6827H177.224ZM178.954 35.1105L178.882 36.3648C178.809 37.1526 178.695 37.8264 178.53 38.407C178.364 38.9667 178.198 39.371 178.022 39.6094H181.337V35.1105H178.954Z" fill="white"/>
<path d="M188.671 35.4426L184.838 40.2318H184.175V34.4785H184.838V39.2677L188.671 34.4785H189.334V40.2318H188.671V35.4426Z" fill="white"/>
<path d="M196.409 40.2318H195.747V37.6299H192.017V40.2318H191.354V34.4785H192.017V36.9975H195.747V34.4785H196.409V40.2318Z" fill="white"/>
<path d="M203.713 40.2318H198.429V34.4785H199.092V39.5995H202.718V34.4785H203.381V39.5995H204.334V41.6831H203.713V40.2318Z" fill="white"/>
<path d="M208.167 40.345C207.287 40.345 206.561 40.0651 205.992 39.5053C205.432 38.9456 205.153 38.2303 205.153 37.3595C205.153 36.4887 205.432 35.7735 205.992 35.2137C206.551 34.6539 207.276 34.374 208.167 34.374C209.048 34.374 209.773 34.6539 210.332 35.2137C210.892 35.7735 211.171 36.4887 211.171 37.3595C211.171 38.2303 210.892 38.9456 210.332 39.5053C209.773 40.0651 209.048 40.345 208.167 40.345ZM208.167 39.723C208.861 39.723 209.41 39.5053 209.825 39.0699C210.26 38.6242 210.477 38.0541 210.477 37.3595C210.477 36.665 210.26 36.1052 209.825 35.6594C209.389 35.2137 208.84 34.996 208.167 34.996C207.504 34.996 206.945 35.2137 206.51 35.6594C206.075 36.1052 205.857 36.665 205.857 37.3595C205.857 38.0541 206.075 38.6138 206.51 39.0596C206.934 39.495 207.494 39.723 208.167 39.723Z" fill="white"/>
<path d="M212.797 40.2313V34.478C213.077 34.478 213.347 34.478 213.616 34.4676C214.165 34.4469 214.507 34.4365 214.652 34.4365C216.237 34.4365 217.024 34.9341 217.024 35.9189C217.024 36.2506 216.92 36.5409 216.713 36.7793C216.506 37.0177 216.226 37.1732 215.864 37.2354V37.2561C216.786 37.3909 217.242 37.8574 217.242 38.6349C217.242 39.713 216.382 40.2624 214.672 40.2624C214.559 40.2624 214.227 40.252 213.668 40.2416C213.388 40.2313 213.098 40.2313 212.797 40.2313ZM214.724 35.0689C214.445 35.0689 214.02 35.0792 213.46 35.0896V37.0281H214.983C215.398 37.0281 215.729 36.9348 215.967 36.7586C216.206 36.572 216.32 36.3336 216.32 36.0226C216.32 35.3902 215.791 35.0689 214.724 35.0689ZM214.838 37.5879H213.46V39.6197C214.123 39.6404 214.559 39.6404 214.755 39.6404C215.947 39.6404 216.547 39.2879 216.547 38.583C216.537 37.9196 215.978 37.5879 214.838 37.5879Z" fill="white"/>
<path d="M221.541 40.345C220.66 40.345 219.935 40.0651 219.365 39.5053C218.806 38.9456 218.526 38.2303 218.526 37.3595C218.526 36.4887 218.806 35.7735 219.365 35.2137C219.925 34.6539 220.65 34.374 221.541 34.374C222.421 34.374 223.146 34.6539 223.706 35.2137C224.265 35.7735 224.545 36.4887 224.545 37.3595C224.545 38.2303 224.265 38.9456 223.706 39.5053C223.157 40.0651 222.431 40.345 221.541 40.345ZM221.541 39.723C222.235 39.723 222.784 39.5053 223.198 39.0699C223.633 38.6242 223.851 38.0541 223.851 37.3595C223.851 36.665 223.633 36.1052 223.198 35.6594C222.763 35.2137 222.214 34.996 221.541 34.996C220.878 34.996 220.318 35.2137 219.883 35.6594C219.448 36.1052 219.231 36.665 219.231 37.3595C219.231 38.0541 219.448 38.6138 219.883 39.0596C220.318 39.495 220.867 39.723 221.541 39.723Z" fill="white"/>
</g>
<defs>
<clipPath id="clip0_705_544">
<rect width="231" height="45" fill="white"/>
</clipPath>
</defs>
</svg>
