<svg width="51" height="50" viewBox="0 0 51 50" fill="none" xmlns="http://www.w3.org/2000/svg">
<path d="M1.36991 16.7133H3.40577V48.6299C3.40577 48.8345 3.57131 49 3.77586 49H46.3363C46.5408 49 46.7064 48.8345 46.7064 48.6299V16.7133H48.7419C48.9464 16.7133 49.1119 16.5478 49.1119 16.3432V9.53373C49.1119 9.32917 48.9464 9.16364 48.7419 9.16364H31.6067C32.8098 8.36599 33.606 7.00092 33.606 5.45191C33.606 2.99719 31.6088 1 29.1541 1C27.3156 1 25.7343 2.12036 25.056 3.71387C24.3776 2.12036 22.7964 1 20.9579 1C18.5032 1 16.506 2.99719 16.506 5.45191C16.506 7.00055 17.3018 8.36563 18.5053 9.16364H1.37009C1.16553 9.16364 1 9.32917 1 9.53373V16.3432C1 16.5478 1.16553 16.7133 1.37009 16.7133H1.36991ZM4.14595 16.7133H21.7502V48.2598L4.14595 48.2602V16.7133ZM22.4904 48.2598V9.90734H27.6203V48.2598H22.4904ZM45.9653 48.2598H28.361V16.7133H45.9662V48.2598H45.9653ZM48.3712 9.90364V15.9729H28.3604V9.90364H48.3712ZM25.4423 5.4521C25.4423 3.4054 27.1073 1.74037 29.154 1.74037C31.2007 1.74037 32.8657 3.4054 32.8657 5.4521C32.8657 7.49879 31.2007 9.16383 29.154 9.16383L25.4423 9.16347V5.4521ZM17.2457 5.4521C17.2457 3.4054 18.9107 1.74037 20.9574 1.74037C23.0041 1.74037 24.6691 3.4054 24.6691 5.4521V9.16383L20.9574 9.16347C18.9111 9.16347 17.2457 7.49843 17.2457 5.45211V5.4521ZM1.73981 9.90364H21.7497V15.9729H1.73981V9.90364Z" fill="#4DA1BE" stroke="#4DA1BE" stroke-width="2"/>
</svg>
