<svg width="446" height="495" viewBox="0 0 446 495" fill="none" xmlns="http://www.w3.org/2000/svg">
<g clip-path="url(#clip0_705_235)">
<path d="M590.235 231.946L444.039 158.571V158.566C442.879 158.004 441.614 157.698 440.328 157.668C448.16 140.547 451.564 121.725 450.224 102.944C447.166 74.3357 433.5 47.9043 411.917 28.8518C390.334 9.80448 362.395 -0.484575 333.602 0.0175489H324.153H324.158C296.028 0.0125328 268.165 5.39014 242.063 15.8595C231.239 20.2337 219.144 20.2337 208.325 15.8595C182.294 5.42032 154.506 0.043233 126.451 0.0175489H117.003H117.008C88.2155 -0.484087 60.2755 9.80461 38.6924 28.8518C17.1092 47.9043 3.44318 74.3357 0.385581 102.944C-2.72215 140.386 13.1025 176.906 42.5571 200.257L76.2948 447.466C77.1784 460.193 82.8516 472.117 92.1792 480.835C101.507 489.549 113.792 494.409 126.565 494.435C132.228 494.415 137.851 493.467 143.207 491.626C159.363 485.4 171.177 471.305 174.47 454.318L212.143 280.938C213.323 274.602 218.855 270.007 225.301 270.007C231.747 270.007 237.28 274.602 238.46 280.938L276.133 454.883C279.426 471.87 291.239 485.965 307.395 492.191C312.752 494.032 318.375 494.98 324.038 495C336.172 494.96 347.885 490.55 357.033 482.584C366.185 474.623 372.155 463.632 373.856 451.629L432.446 492.979H432.451C434.424 494.112 436.698 494.624 438.972 494.438C441.267 494.433 443.501 493.726 445.384 492.417L550.197 419.041C552.436 417.486 554.032 415.169 554.695 412.52L596.415 244.649C597.605 239.487 595.03 234.2 590.23 231.952L590.235 231.946ZM533.89 402.964L438.972 469.487L344.506 402.964L305.818 248.012L438.969 181.153L572.121 248.012L533.89 402.964Z" fill="#4DA1BE" fill-opacity="0.13"/>
<path d="M416.483 247.228V303.412H360.254V348.359H416.483V404.543H461.467V348.359H517.696V303.412H461.467V247.228H416.483Z" fill="#4DA1BE" fill-opacity="0.13"/>
</g>
<defs>
<clipPath id="clip0_705_235">
<rect width="446" height="495" fill="white"/>
</clipPath>
</defs>
</svg>
