<svg width="84" height="77" viewBox="0 0 84 77" fill="none" xmlns="http://www.w3.org/2000/svg">
<path d="M77.9556 22.7678C77.9556 20.3065 76.3251 18.5936 74.5539 18.5935L77.9556 22.7678ZM77.9556 22.7678V29.5743M77.9556 22.7678V29.5743M77.9556 29.5743C77.9556 30.8737 77.1381 31.6515 76.3784 31.6515M77.9556 29.5743L76.3784 31.6515M76.3784 31.6515H72.7522M76.3784 31.6515H72.7522M72.7522 31.6515C71.9857 31.6515 71.175 30.8741 71.175 29.5743M72.7522 31.6515L71.175 29.5743M71.175 29.5743V22.767M71.175 29.5743V22.767M71.175 22.767C71.175 20.3055 72.7906 18.5936 74.5539 18.5935L71.175 22.767ZM55.0557 21.5179C55.0557 18.2455 52.4703 15.6489 49.2198 15.6488L55.0557 21.5179ZM55.0557 21.5179V30.3633M55.0557 21.5179V30.3633M55.0557 30.3633C55.0557 32.1243 53.6896 33.4911 51.943 33.4911M55.0557 30.3633L51.943 33.4911M51.943 33.4911H46.4923M51.943 33.4911H46.4923M46.4923 33.4911C44.7434 33.4911 43.3796 32.1245 43.3796 30.3633M46.4923 33.4911L43.3796 30.3633M43.3796 30.3633V21.5162M43.3796 30.3633V21.5162M43.3796 21.5162C43.3789 18.2454 45.9619 15.6489 49.2196 15.6488L43.3796 21.5162ZM5.90072 22.7669V22.7668C5.89919 20.3108 7.5266 18.5982 9.29215 18.5982H9.29228C11.063 18.5982 12.6813 20.3106 12.6813 22.7677V29.5804C12.6813 30.8799 11.8638 31.6577 11.1041 31.6577H7.47789C6.71146 31.6577 5.90072 30.8803 5.90072 29.5804V22.7669ZM15.5799 21.5225V21.5225C15.5792 18.601 17.8647 16.3004 20.7378 16.3004H20.738C23.6105 16.3004 25.9028 18.6021 25.9028 21.5225V29.5781C25.9028 31.1199 24.7182 32.3015 23.2132 32.3015H18.2625C16.7649 32.3015 15.5799 31.1194 15.5799 29.5781V21.5225ZM63.112 16.2941V16.2947L63.119 16.2941C65.9887 16.2977 68.2692 18.6031 68.2692 21.5162V29.5735C68.2692 31.1142 67.092 32.296 65.5858 32.296L60.6368 32.2952C59.1314 32.2952 57.9534 31.1134 57.9534 29.5727V21.5163C57.9549 18.6008 60.2391 16.2941 63.112 16.2941ZM20.3572 5.30426C26.4396 4.37286 33.9343 3.75476 41.9239 3.75468V3.75488C49.9149 3.75488 57.4102 4.37298 63.4923 5.30366L63.4923 5.30367C69.5854 6.23274 74.3018 7.52776 76.5004 8.64229L76.5007 8.64244C77.7714 9.28319 78.6644 10.102 79.2425 11.1924C79.8222 12.2858 80.0923 13.6657 80.0923 15.4398C80.0923 16.7626 80.0324 17.9577 79.8846 19.0403C78.7925 17.065 76.8693 15.6926 74.5561 15.6926C72.833 15.6926 71.314 16.4545 70.1991 17.6653C68.8326 15.1366 66.1751 13.4002 63.1129 13.4002C60.4186 13.4002 58.0279 14.745 56.562 16.7953C55.0095 14.3721 52.3 12.7565 49.2211 12.7565C46.1706 12.7565 43.5027 14.3441 41.9396 16.7243C40.3744 14.3439 37.6893 12.7627 34.6393 12.7627C31.5515 12.7627 28.8447 14.3721 27.2909 16.7949C25.8315 14.7463 23.4368 13.4081 20.7396 13.4081C17.6765 13.4081 15.0187 15.1366 13.6585 17.6725C12.5445 16.462 11.0259 15.7004 9.29334 15.7004C6.98781 15.7004 5.06091 17.0713 3.97269 19.0477C3.82207 17.9608 3.75791 16.7696 3.75791 15.4404C3.75791 13.6659 4.02807 12.286 4.60755 11.1927C5.18547 10.1023 6.07807 9.28375 7.34796 8.64302L7.34813 8.64294C9.54682 7.53 14.2689 6.23334 20.3571 5.30427L20.3572 5.30426ZM0.850122 15.4407C0.850122 18.9587 1.21561 22.1562 2.99255 24.8069V29.5805C2.99255 32.1948 4.87579 34.5643 7.47463 34.5643H11.1009C12.2873 34.5643 13.3162 34.0598 14.0908 33.2764C15.1114 34.4471 16.5914 35.208 18.2583 35.208H23.209C24.6513 35.208 25.9578 34.6497 26.947 33.7477C28.0285 35.3391 29.8442 36.4013 31.9114 36.4013H37.3621C39.1961 36.4013 40.815 35.5538 41.9157 34.253C43.0219 35.5546 44.6535 36.3958 46.4885 36.3958H51.9392C54.0006 36.3958 55.8148 35.3334 56.8953 33.7419C57.8905 34.6453 59.1963 35.2026 60.6345 35.2026H65.5828C67.2523 35.2026 68.7317 34.4415 69.7517 33.2704C70.5322 34.054 71.5619 34.5596 72.7481 34.5596H76.3743C78.9654 34.5596 80.85 32.1916 80.85 29.5759V24.8086C82.6325 22.1578 82.9924 18.96 82.9924 15.4423C82.9924 11.1976 81.2593 7.79664 77.7976 6.04538L77.7975 6.0453C74.9864 4.62708 70.1592 3.40048 63.923 2.4431C57.6809 1.48108 50.066 0.850155 41.9239 0.85002V0.85C33.7815 0.85 26.1659 1.48095 19.9181 2.44152C13.6832 3.39885 8.86256 4.62551 6.05206 6.04372L6.05205 6.04373C2.58413 7.7941 0.850122 11.1951 0.850122 15.4407ZM34.6376 15.6558C37.889 15.6558 40.4713 18.2501 40.4713 21.5233V30.3688C40.4713 32.1286 39.1119 33.4949 37.3649 33.4949H31.9142C30.1682 33.4949 28.8015 32.1282 28.8015 30.3688V21.5233C28.8015 18.2492 31.38 15.6558 34.6376 15.6558Z" fill="#4DA1BE" stroke="#4DA1BE" stroke-width="0.3"/>
<mask id="path-2-outside-1_705_266" maskUnits="userSpaceOnUse" x="0" y="41.9373" width="84" height="35" fill="black">
<rect fill="white" y="41.9373" width="84" height="35"/>
<path d="M3.86183 57.7013C4.79214 58.4832 5.93994 58.9652 7.22198 58.9652C7.94504 58.9652 8.5778 58.7643 9.13049 58.4903C10.1213 60.2025 11.8342 61.3817 13.8659 61.3817C15.3968 61.3817 16.3333 61.1015 17.3312 60.0424C18.2489 62.9849 20.8994 64.9145 24.1369 64.9145C26.5919 64.9145 28.4023 63.7291 29.5493 62.4658C30.4144 64.3931 32.8119 66.49 35.997 66.49C38.7581 66.49 41.0058 64.9403 41.9235 63.3513C42.8412 64.9411 45.0889 66.49 47.8507 66.49C51.0358 66.49 53.4319 64.393 54.3055 62.4658C55.4439 63.729 57.2559 64.9145 59.71 64.9145C62.9462 64.9145 65.6035 62.9848 66.5166 60.0424C67.5136 61.103 68.4565 61.3817 69.9802 61.3817C72.0119 61.3817 73.7266 60.2033 74.7157 58.4903C75.2746 58.7643 75.8996 58.9652 76.6226 58.9652C77.907 58.9652 79.0524 58.484 79.9844 57.7013C80.161 58.8616 80.2379 60.1373 80.2379 61.5576C80.2379 65.1312 79.1514 67.185 76.5639 68.4882C74.3445 69.6147 69.6074 70.9039 63.5105 71.8435C57.4215 72.773 49.9186 73.3932 41.9195 73.3932C33.9211 73.3932 26.4182 72.773 20.3284 71.8435C14.2369 70.9045 9.49526 69.6146 7.27425 68.4882C4.69068 67.1849 3.60178 65.1328 3.60178 61.5576C3.60492 60.1374 3.68264 58.8617 3.86008 57.7013H3.86183ZM45.6351 49.6127H50.0661C51.4196 49.6127 52.4818 50.6741 52.4818 52.0425V59.2377C52.4818 61.838 50.4375 63.8807 47.8515 63.8807C45.2655 63.8807 43.2282 61.8372 43.2282 59.2377V52.0425C43.2282 50.6757 44.2747 49.6127 45.6353 49.6127H45.6351ZM33.7828 49.6127H38.2122C39.5743 49.6127 40.6207 50.6741 40.6207 52.0425V59.2377C40.6207 61.838 38.5834 63.8807 35.9974 63.8807C33.4114 63.8807 31.3671 61.8372 31.3671 59.2377V52.0425C31.3663 50.6757 32.4269 49.6127 33.7828 49.6127ZM57.4962 48.0371H61.9272C63.2877 48.0371 64.3357 49.0899 64.3357 50.4607V57.6637C64.3357 60.264 62.2984 62.3146 59.7124 62.3146C57.1264 62.3146 55.0743 60.264 55.0743 57.6637V50.4607C55.0727 49.0899 56.1427 48.0371 57.4962 48.0371ZM21.9231 48.0371H26.3509C27.7051 48.0371 28.7745 49.0899 28.7745 50.4607V57.6637C28.7745 60.264 26.7239 62.3146 24.1379 62.3146C21.5519 62.3146 19.5122 60.264 19.5122 57.6637V50.4607C19.5122 49.0899 20.5673 48.0371 21.9231 48.0371ZM68.3591 47.1319H71.6109C72.3151 47.1319 73.0303 47.8345 73.0303 48.9752V55.058C73.0303 57.2413 71.585 58.7785 69.9819 58.7785C68.3874 58.7785 66.9405 57.2414 66.9405 55.058V48.9752C66.9397 47.8345 67.6565 47.1319 68.3591 47.1319H68.3591ZM12.236 47.1319H15.4862C16.1904 47.1319 16.9056 47.8345 16.9056 48.9752V55.058C16.9056 57.2413 15.4674 58.7785 13.8642 58.7785C12.2611 58.7785 10.8142 57.2414 10.8142 55.058V48.9752C10.8149 47.8345 11.5317 47.1319 12.2359 47.1319H12.236ZM74.9974 45.5413H78.246C78.9502 45.5413 79.6678 46.2377 79.6678 47.3784V52.6408C79.6678 54.824 78.2272 56.3738 76.624 56.3738C76.0187 56.3738 75.6269 56.1123 75.6269 55.0572V48.9744C75.6269 47.7301 75.1378 46.5721 74.3512 45.7447C74.5467 45.6128 74.7673 45.5413 74.9973 45.5413L74.9974 45.5413ZM5.59969 45.5413H8.8483C9.07675 45.5413 9.29736 45.6128 9.4999 45.7454C8.7062 46.5729 8.21789 47.7317 8.21789 48.9752V55.058C8.21789 56.1131 7.82771 56.3745 7.22085 56.3745C5.62481 56.3745 4.17865 54.8248 4.17865 52.6416V47.3792C4.17943 46.2377 4.89699 45.5413 5.59962 45.5413L5.59969 45.5413ZM5.59969 42.9373C3.28603 42.9373 1.57389 45.0357 1.57389 47.3793V52.6417C1.57389 53.3655 1.70421 54.0627 1.91304 54.719C1.1892 56.7923 1 59.0784 1 61.5593C1 65.7587 2.71302 69.1 6.11952 70.8224C8.90728 72.2276 13.708 73.4532 19.9408 74.4102C26.1797 75.368 33.7878 76 41.9238 76C50.0587 76 57.6668 75.3688 63.9067 74.4102C70.1395 73.4532 74.9465 72.227 77.7364 70.8224C81.1366 69.1015 82.8489 65.7601 82.8489 61.5593C82.8489 59.0722 82.6613 56.7923 81.9375 54.719C82.1447 54.0635 82.275 53.3655 82.275 52.6417V47.3793C82.275 45.0359 80.5628 42.9373 78.2492 42.9373H75.0006C73.743 42.9373 72.6094 43.5936 71.8941 44.5333H68.3629C66.8658 44.5333 65.7259 45.2626 65.0365 46.5133C64.1573 45.747 63.1861 45.4401 61.93 45.4401H57.4991C55.5521 45.4401 53.9622 46.4308 53.1372 48.059C52.5948 47.5762 51.3441 47.0102 50.0699 47.0102H45.6389C44.3569 47.0102 42.8528 47.5715 41.9271 48.6769C41.0093 47.5699 39.4989 47.0102 38.2152 47.0102H33.7859C32.5093 47.0102 31.2588 47.5778 30.725 48.059C29.8912 46.4308 28.3014 45.4401 26.3545 45.4401H21.9267C20.6698 45.4401 19.7057 45.7462 18.8178 46.5133C18.1277 45.2626 16.9894 44.5333 15.4898 44.5333H11.9594C11.2427 43.5951 10.1098 42.9373 8.85292 42.9373H5.59969Z"/>
</mask>
<path d="M3.86183 57.7013C4.79214 58.4832 5.93994 58.9652 7.22198 58.9652C7.94504 58.9652 8.5778 58.7643 9.13049 58.4903C10.1213 60.2025 11.8342 61.3817 13.8659 61.3817C15.3968 61.3817 16.3333 61.1015 17.3312 60.0424C18.2489 62.9849 20.8994 64.9145 24.1369 64.9145C26.5919 64.9145 28.4023 63.7291 29.5493 62.4658C30.4144 64.3931 32.8119 66.49 35.997 66.49C38.7581 66.49 41.0058 64.9403 41.9235 63.3513C42.8412 64.9411 45.0889 66.49 47.8507 66.49C51.0358 66.49 53.4319 64.393 54.3055 62.4658C55.4439 63.729 57.2559 64.9145 59.71 64.9145C62.9462 64.9145 65.6035 62.9848 66.5166 60.0424C67.5136 61.103 68.4565 61.3817 69.9802 61.3817C72.0119 61.3817 73.7266 60.2033 74.7157 58.4903C75.2746 58.7643 75.8996 58.9652 76.6226 58.9652C77.907 58.9652 79.0524 58.484 79.9844 57.7013C80.161 58.8616 80.2379 60.1373 80.2379 61.5576C80.2379 65.1312 79.1514 67.185 76.5639 68.4882C74.3445 69.6147 69.6074 70.9039 63.5105 71.8435C57.4215 72.773 49.9186 73.3932 41.9195 73.3932C33.9211 73.3932 26.4182 72.773 20.3284 71.8435C14.2369 70.9045 9.49526 69.6146 7.27425 68.4882C4.69068 67.1849 3.60178 65.1328 3.60178 61.5576C3.60492 60.1374 3.68264 58.8617 3.86008 57.7013H3.86183ZM45.6351 49.6127H50.0661C51.4196 49.6127 52.4818 50.6741 52.4818 52.0425V59.2377C52.4818 61.838 50.4375 63.8807 47.8515 63.8807C45.2655 63.8807 43.2282 61.8372 43.2282 59.2377V52.0425C43.2282 50.6757 44.2747 49.6127 45.6353 49.6127H45.6351ZM33.7828 49.6127H38.2122C39.5743 49.6127 40.6207 50.6741 40.6207 52.0425V59.2377C40.6207 61.838 38.5834 63.8807 35.9974 63.8807C33.4114 63.8807 31.3671 61.8372 31.3671 59.2377V52.0425C31.3663 50.6757 32.4269 49.6127 33.7828 49.6127ZM57.4962 48.0371H61.9272C63.2877 48.0371 64.3357 49.0899 64.3357 50.4607V57.6637C64.3357 60.264 62.2984 62.3146 59.7124 62.3146C57.1264 62.3146 55.0743 60.264 55.0743 57.6637V50.4607C55.0727 49.0899 56.1427 48.0371 57.4962 48.0371ZM21.9231 48.0371H26.3509C27.7051 48.0371 28.7745 49.0899 28.7745 50.4607V57.6637C28.7745 60.264 26.7239 62.3146 24.1379 62.3146C21.5519 62.3146 19.5122 60.264 19.5122 57.6637V50.4607C19.5122 49.0899 20.5673 48.0371 21.9231 48.0371ZM68.3591 47.1319H71.6109C72.3151 47.1319 73.0303 47.8345 73.0303 48.9752V55.058C73.0303 57.2413 71.585 58.7785 69.9819 58.7785C68.3874 58.7785 66.9405 57.2414 66.9405 55.058V48.9752C66.9397 47.8345 67.6565 47.1319 68.3591 47.1319H68.3591ZM12.236 47.1319H15.4862C16.1904 47.1319 16.9056 47.8345 16.9056 48.9752V55.058C16.9056 57.2413 15.4674 58.7785 13.8642 58.7785C12.2611 58.7785 10.8142 57.2414 10.8142 55.058V48.9752C10.8149 47.8345 11.5317 47.1319 12.2359 47.1319H12.236ZM74.9974 45.5413H78.246C78.9502 45.5413 79.6678 46.2377 79.6678 47.3784V52.6408C79.6678 54.824 78.2272 56.3738 76.624 56.3738C76.0187 56.3738 75.6269 56.1123 75.6269 55.0572V48.9744C75.6269 47.7301 75.1378 46.5721 74.3512 45.7447C74.5467 45.6128 74.7673 45.5413 74.9973 45.5413L74.9974 45.5413ZM5.59969 45.5413H8.8483C9.07675 45.5413 9.29736 45.6128 9.4999 45.7454C8.7062 46.5729 8.21789 47.7317 8.21789 48.9752V55.058C8.21789 56.1131 7.82771 56.3745 7.22085 56.3745C5.62481 56.3745 4.17865 54.8248 4.17865 52.6416V47.3792C4.17943 46.2377 4.89699 45.5413 5.59962 45.5413L5.59969 45.5413ZM5.59969 42.9373C3.28603 42.9373 1.57389 45.0357 1.57389 47.3793V52.6417C1.57389 53.3655 1.70421 54.0627 1.91304 54.719C1.1892 56.7923 1 59.0784 1 61.5593C1 65.7587 2.71302 69.1 6.11952 70.8224C8.90728 72.2276 13.708 73.4532 19.9408 74.4102C26.1797 75.368 33.7878 76 41.9238 76C50.0587 76 57.6668 75.3688 63.9067 74.4102C70.1395 73.4532 74.9465 72.227 77.7364 70.8224C81.1366 69.1015 82.8489 65.7601 82.8489 61.5593C82.8489 59.0722 82.6613 56.7923 81.9375 54.719C82.1447 54.0635 82.275 53.3655 82.275 52.6417V47.3793C82.275 45.0359 80.5628 42.9373 78.2492 42.9373H75.0006C73.743 42.9373 72.6094 43.5936 71.8941 44.5333H68.3629C66.8658 44.5333 65.7259 45.2626 65.0365 46.5133C64.1573 45.747 63.1861 45.4401 61.93 45.4401H57.4991C55.5521 45.4401 53.9622 46.4308 53.1372 48.059C52.5948 47.5762 51.3441 47.0102 50.0699 47.0102H45.6389C44.3569 47.0102 42.8528 47.5715 41.9271 48.6769C41.0093 47.5699 39.4989 47.0102 38.2152 47.0102H33.7859C32.5093 47.0102 31.2588 47.5778 30.725 48.059C29.8912 46.4308 28.3014 45.4401 26.3545 45.4401H21.9267C20.6698 45.4401 19.7057 45.7462 18.8178 46.5133C18.1277 45.2626 16.9894 44.5333 15.4898 44.5333H11.9594C11.2427 43.5951 10.1098 42.9373 8.85292 42.9373H5.59969Z" fill="#4DA1BE"/>
<path d="M3.86183 57.7013C4.79214 58.4832 5.93994 58.9652 7.22198 58.9652C7.94504 58.9652 8.5778 58.7643 9.13049 58.4903C10.1213 60.2025 11.8342 61.3817 13.8659 61.3817C15.3968 61.3817 16.3333 61.1015 17.3312 60.0424C18.2489 62.9849 20.8994 64.9145 24.1369 64.9145C26.5919 64.9145 28.4023 63.7291 29.5493 62.4658C30.4144 64.3931 32.8119 66.49 35.997 66.49C38.7581 66.49 41.0058 64.9403 41.9235 63.3513C42.8412 64.9411 45.0889 66.49 47.8507 66.49C51.0358 66.49 53.4319 64.393 54.3055 62.4658C55.4439 63.729 57.2559 64.9145 59.71 64.9145C62.9462 64.9145 65.6035 62.9848 66.5166 60.0424C67.5136 61.103 68.4565 61.3817 69.9802 61.3817C72.0119 61.3817 73.7266 60.2033 74.7157 58.4903C75.2746 58.7643 75.8996 58.9652 76.6226 58.9652C77.907 58.9652 79.0524 58.484 79.9844 57.7013C80.161 58.8616 80.2379 60.1373 80.2379 61.5576C80.2379 65.1312 79.1514 67.185 76.5639 68.4882C74.3445 69.6147 69.6074 70.9039 63.5105 71.8435C57.4215 72.773 49.9186 73.3932 41.9195 73.3932C33.9211 73.3932 26.4182 72.773 20.3284 71.8435C14.2369 70.9045 9.49526 69.6146 7.27425 68.4882C4.69068 67.1849 3.60178 65.1328 3.60178 61.5576C3.60492 60.1374 3.68264 58.8617 3.86008 57.7013H3.86183ZM45.6351 49.6127H50.0661C51.4196 49.6127 52.4818 50.6741 52.4818 52.0425V59.2377C52.4818 61.838 50.4375 63.8807 47.8515 63.8807C45.2655 63.8807 43.2282 61.8372 43.2282 59.2377V52.0425C43.2282 50.6757 44.2747 49.6127 45.6353 49.6127H45.6351ZM33.7828 49.6127H38.2122C39.5743 49.6127 40.6207 50.6741 40.6207 52.0425V59.2377C40.6207 61.838 38.5834 63.8807 35.9974 63.8807C33.4114 63.8807 31.3671 61.8372 31.3671 59.2377V52.0425C31.3663 50.6757 32.4269 49.6127 33.7828 49.6127ZM57.4962 48.0371H61.9272C63.2877 48.0371 64.3357 49.0899 64.3357 50.4607V57.6637C64.3357 60.264 62.2984 62.3146 59.7124 62.3146C57.1264 62.3146 55.0743 60.264 55.0743 57.6637V50.4607C55.0727 49.0899 56.1427 48.0371 57.4962 48.0371ZM21.9231 48.0371H26.3509C27.7051 48.0371 28.7745 49.0899 28.7745 50.4607V57.6637C28.7745 60.264 26.7239 62.3146 24.1379 62.3146C21.5519 62.3146 19.5122 60.264 19.5122 57.6637V50.4607C19.5122 49.0899 20.5673 48.0371 21.9231 48.0371ZM68.3591 47.1319H71.6109C72.3151 47.1319 73.0303 47.8345 73.0303 48.9752V55.058C73.0303 57.2413 71.585 58.7785 69.9819 58.7785C68.3874 58.7785 66.9405 57.2414 66.9405 55.058V48.9752C66.9397 47.8345 67.6565 47.1319 68.3591 47.1319H68.3591ZM12.236 47.1319H15.4862C16.1904 47.1319 16.9056 47.8345 16.9056 48.9752V55.058C16.9056 57.2413 15.4674 58.7785 13.8642 58.7785C12.2611 58.7785 10.8142 57.2414 10.8142 55.058V48.9752C10.8149 47.8345 11.5317 47.1319 12.2359 47.1319H12.236ZM74.9974 45.5413H78.246C78.9502 45.5413 79.6678 46.2377 79.6678 47.3784V52.6408C79.6678 54.824 78.2272 56.3738 76.624 56.3738C76.0187 56.3738 75.6269 56.1123 75.6269 55.0572V48.9744C75.6269 47.7301 75.1378 46.5721 74.3512 45.7447C74.5467 45.6128 74.7673 45.5413 74.9973 45.5413L74.9974 45.5413ZM5.59969 45.5413H8.8483C9.07675 45.5413 9.29736 45.6128 9.4999 45.7454C8.7062 46.5729 8.21789 47.7317 8.21789 48.9752V55.058C8.21789 56.1131 7.82771 56.3745 7.22085 56.3745C5.62481 56.3745 4.17865 54.8248 4.17865 52.6416V47.3792C4.17943 46.2377 4.89699 45.5413 5.59962 45.5413L5.59969 45.5413ZM5.59969 42.9373C3.28603 42.9373 1.57389 45.0357 1.57389 47.3793V52.6417C1.57389 53.3655 1.70421 54.0627 1.91304 54.719C1.1892 56.7923 1 59.0784 1 61.5593C1 65.7587 2.71302 69.1 6.11952 70.8224C8.90728 72.2276 13.708 73.4532 19.9408 74.4102C26.1797 75.368 33.7878 76 41.9238 76C50.0587 76 57.6668 75.3688 63.9067 74.4102C70.1395 73.4532 74.9465 72.227 77.7364 70.8224C81.1366 69.1015 82.8489 65.7601 82.8489 61.5593C82.8489 59.0722 82.6613 56.7923 81.9375 54.719C82.1447 54.0635 82.275 53.3655 82.275 52.6417V47.3793C82.275 45.0359 80.5628 42.9373 78.2492 42.9373H75.0006C73.743 42.9373 72.6094 43.5936 71.8941 44.5333H68.3629C66.8658 44.5333 65.7259 45.2626 65.0365 46.5133C64.1573 45.747 63.1861 45.4401 61.93 45.4401H57.4991C55.5521 45.4401 53.9622 46.4308 53.1372 48.059C52.5948 47.5762 51.3441 47.0102 50.0699 47.0102H45.6389C44.3569 47.0102 42.8528 47.5715 41.9271 48.6769C41.0093 47.5699 39.4989 47.0102 38.2152 47.0102H33.7859C32.5093 47.0102 31.2588 47.5778 30.725 48.059C29.8912 46.4308 28.3014 45.4401 26.3545 45.4401H21.9267C20.6698 45.4401 19.7057 45.7462 18.8178 46.5133C18.1277 45.2626 16.9894 44.5333 15.4898 44.5333H11.9594C11.2427 43.5951 10.1098 42.9373 8.85292 42.9373H5.59969Z" stroke="#4DA1BE" stroke-width="0.6" mask="url(#path-2-outside-1_705_266)"/>
</svg>
