<svg width="331" height="400" viewBox="0 0 331 400" fill="none" xmlns="http://www.w3.org/2000/svg">
<path d="M117.165 106.343V173.055H50.447V226.425H50.7437V226.52H117.165V293.137H117.461V293.232H170.835V226.52H237.553V173.15H237.256V173.055H170.835V106.437H170.539V106.343H117.165Z" fill="#4DA1BE" fill-opacity="0.32"/>
<path fill-rule="evenodd" clip-rule="evenodd" d="M149.859 1.07218L323.325 88.1978L323.319 88.2048C329.014 90.8733 332.07 97.1513 330.658 103.28L281.156 302.609C280.369 305.754 278.475 308.506 275.818 310.353L151.647 397.344C149.306 398.69 146.85 400.194 144.152 399.973C143.766 399.973 143.381 399.955 142.999 399.921C140.587 399.964 138.404 398.613 136.309 397.408L12.1817 310.447C9.52493 308.601 7.63064 305.849 6.84438 302.704L-42.6578 103.375C-44.0696 97.246 -41.0138 90.9679 -35.3189 88.2994L-35.325 88.2924L138.141 1.16679V1.16083C139.517 0.493705 141.018 0.130355 142.543 0.0946126H143.845V0H145.457C146.982 0.0357426 148.483 0.399092 149.859 1.06622V1.07218ZM144.094 28.0121L-13.832 107.368L31.5299 291.357L143.933 370.192L256.47 291.263L301.832 107.274L144.094 28.0121Z" fill="#4DA1BE" fill-opacity="0.32"/>
</svg>
