<svg width="232" height="248" viewBox="0 0 232 248" fill="none" xmlns="http://www.w3.org/2000/svg">
<path d="M99.2629 65.8583V107.173H57.9143V140.225H58.0982V140.284H99.2629V181.54H99.4468V181.599H132.526V140.284H173.874V107.232H173.69V107.173H132.526V65.9169H132.342V65.8583H99.2629Z" fill="#4DA1BE" fill-opacity="0.32"/>
<path fill-rule="evenodd" clip-rule="evenodd" d="M119.526 0.664001L227.032 54.621L227.028 54.6253C230.558 56.2779 232.451 60.166 231.576 63.9618L200.897 187.406C200.41 189.354 199.236 191.058 197.589 192.202L120.634 246.076C119.183 246.909 117.661 247.841 115.988 247.704C115.749 247.704 115.511 247.693 115.274 247.672C113.779 247.698 112.426 246.861 111.128 246.115L34.1992 192.26C32.5526 191.117 31.3786 189.413 30.8913 187.465L0.212067 64.0204C-0.662887 60.2246 1.23099 56.3365 4.76041 54.6839L4.75665 54.6796L112.263 0.722595V0.718903C113.116 0.305752 114.046 0.0807292 114.991 0.0585938H115.798V0H116.797C117.742 0.0221354 118.673 0.247158 119.526 0.660309V0.664001ZM115.953 17.3479L18.077 66.4933L46.1903 180.438L115.852 229.26L185.598 180.379L213.712 66.4347L115.953 17.3479Z" fill="#4DA1BE" fill-opacity="0.32"/>
</svg>
