<svg width="50" height="45" viewBox="0 0 50 45" fill="none" xmlns="http://www.w3.org/2000/svg">
<path d="M3.35202 8.71884C3.35202 8.7616 3.38676 8.79596 3.42914 8.79596C3.47152 8.79596 3.50626 8.7616 3.50626 8.71884C3.83993 6.6236 5.1395 4.97325 6.78154 4.59678V4.59716C6.82392 4.59716 6.85828 4.56242 6.85828 4.52004C6.85828 4.47767 6.82392 4.44293 6.78154 4.44293C5.1395 4.06687 3.83953 2.41649 3.50626 0.321259C3.50626 0.2785 3.47152 0.244141 3.42914 0.244141C3.38676 0.244141 3.35202 0.2785 3.35202 0.321259C3.01873 2.41649 1.71878 4.06684 0.076737 4.44293C0.0343602 4.44293 0 4.47767 0 4.52004C0 4.56242 0.0343592 4.59716 0.076737 4.59716C1.71878 4.97322 3.01875 6.62359 3.35202 8.71883V8.71884Z" fill="#4DA1BE" fill-opacity="0.35"/>
<path d="M3.50641 36.0844C3.56406 35.3671 3.82253 34.6807 4.25202 34.1031C4.68152 33.5255 5.26446 33.0799 5.93492 32.8181C5.97767 32.8181 6.01203 32.7833 6.01203 32.7409C6.01203 32.6986 5.97767 32.6638 5.93492 32.6638C5.26451 32.4019 4.68157 31.9564 4.25202 31.3788C3.82248 30.8012 3.56406 30.1147 3.50641 29.3974C3.50641 29.3547 3.47167 29.3203 3.4293 29.3203C3.38692 29.3203 3.35218 29.3547 3.35218 29.3974C3.29453 30.1148 3.03606 30.8012 2.60657 31.3788C2.17707 31.9564 1.59414 32.402 0.923676 32.6638C0.880917 32.6638 0.846558 32.6986 0.846558 32.7409C0.846558 32.7833 0.880917 32.8181 0.923676 32.8181C1.59408 33.08 2.17703 33.5255 2.60657 34.1031C3.03611 34.6807 3.29453 35.3672 3.35218 36.0844C3.35218 36.1051 3.36058 36.1245 3.3747 36.139C3.38921 36.1535 3.40906 36.1616 3.4293 36.1616C3.44953 36.1616 3.46938 36.1535 3.48389 36.139C3.49801 36.1245 3.50641 36.1051 3.50641 36.0844Z" fill="#4DA1BE" fill-opacity="0.35"/>
<path d="M49.1387 24.7368L38.0214 19.1525V19.1522C37.9332 19.1094 37.837 19.0861 37.7392 19.0838C38.3348 17.7808 38.5937 16.3484 38.4917 14.919C38.2592 12.7418 37.22 10.7302 35.5787 9.28025C33.9375 7.83064 31.8129 7.04759 29.6234 7.08581H28.9049H28.9052C26.7661 7.08543 24.6473 7.49469 22.6624 8.29146C21.8393 8.62437 20.9196 8.62437 20.0969 8.29146C18.1174 7.49699 16.0043 7.08776 13.8709 7.08581H13.1524H13.1528C10.9633 7.04763 8.83869 7.83065 7.19743 9.28025C5.55617 10.7302 4.51696 12.7418 4.28445 14.919C4.04813 17.7686 5.25148 20.548 7.49132 22.3251L10.0569 41.139C10.124 42.1076 10.5555 43.015 11.2648 43.6786C11.9741 44.3417 12.9083 44.7116 13.8795 44.7136C14.3102 44.712 14.7378 44.6399 15.1451 44.4998C16.3736 44.026 17.272 42.9532 17.5224 41.6605L20.3872 28.4653C20.4769 27.9831 20.8977 27.6334 21.3878 27.6334C21.878 27.6334 22.2987 27.9831 22.3884 28.4653L25.2532 41.7035C25.5037 42.9962 26.402 44.069 27.6305 44.5428C28.0379 44.6829 28.4655 44.755 28.8961 44.7566C29.8188 44.7535 30.7096 44.4179 31.4051 43.8117C32.1011 43.2058 32.5551 42.3693 32.6845 41.4558L37.1398 44.6027H37.1402C37.2902 44.689 37.4632 44.7279 37.6361 44.7138C37.8106 44.7134 37.9805 44.6596 38.1237 44.56L46.094 38.9757C46.2643 38.8574 46.3857 38.681 46.4361 38.4794L49.6087 25.7035C49.6991 25.3107 49.5033 24.9083 49.1383 24.7372L49.1387 24.7368ZM29.0845 9.65145C30.6448 9.70567 32.1269 10.3459 33.2363 11.4443C34.3458 12.5422 35.0009 14.0182 35.0708 15.5778L33.3604 15.6977C33.323 14.5699 32.8622 13.4975 32.07 12.6939C31.2774 11.8906 30.2115 11.4149 29.0845 11.3619V9.65145ZM35.0708 17.3481V19.0584H33.3604V17.3481H35.0708ZM44.854 37.7521L37.6361 42.8149L30.4526 37.7521L27.5106 25.9595L37.6359 20.8712L47.7612 25.9595L44.854 37.7521Z" fill="#4DA1BE" fill-opacity="0.35"/>
<path d="M35.926 25.8994V30.1753H31.6501V33.596H35.926V37.8719H39.3468V33.596H43.6226V30.1753H39.3468V25.8994H35.926Z" fill="#4DA1BE" fill-opacity="0.35"/>
</svg>
