<svg width="37" height="50" viewBox="0 0 37 50" fill="none" xmlns="http://www.w3.org/2000/svg">
<path d="M33.6202 5.48324H27.7889C27.0362 3.44218 24.2181 4.13791 22.5676 4.02828C22.3165 2.67339 21.444 1.51513 20.2106 0.900173C18.9773 0.285216 17.5268 0.285242 16.2936 0.900173C15.0603 1.5151 14.1873 2.67339 13.9362 4.02828C12.2771 4.13791 9.47 3.44247 8.71288 5.48324H2.88148C2.11958 5.48392 1.38855 5.78608 0.848575 6.32427C0.308671 6.86212 0.0034291 7.59181 0 8.35411V46.6671C0.000685118 47.431 0.304216 48.1634 0.844461 48.7037C1.38506 49.2443 2.11753 49.5479 2.88149 49.5485H33.6206C34.3842 49.5475 35.1163 49.2433 35.6562 48.7031C36.1958 48.1628 36.4993 47.4307 36.5 46.6671V8.35413C36.4966 7.59222 36.1917 6.86286 35.6521 6.32499C35.1129 5.78714 34.3821 5.48462 33.6202 5.48324ZM8.829 10.8361C9.02942 11.2095 9.32711 11.5219 9.68991 11.7402C10.053 11.9584 10.4686 12.0745 10.892 12.0762H25.6117C26.0355 12.0745 26.4507 11.9584 26.8138 11.7402C27.177 11.5219 27.4743 11.2095 27.6747 10.8361H29.843L29.8433 42.1216H6.65873V10.8361H8.829ZM10.0209 6.38323C10.0209 5.89848 10.4138 5.50552 10.8989 5.50552H14.63C14.8273 5.50552 15.0164 5.42707 15.1558 5.28729C15.2953 5.14786 15.3737 4.95875 15.3737 4.76143C15.3521 3.98137 15.6471 3.22561 16.1911 2.66617C16.7355 2.10673 17.4827 1.79121 18.263 1.79121C19.0434 1.79121 19.7906 2.10673 20.3346 2.66617C20.879 3.2256 21.1739 3.98133 21.1524 4.76143C21.1524 5.17218 21.4853 5.50552 21.8964 5.50552H25.6275C25.8605 5.50552 26.0835 5.59801 26.2479 5.76245C26.4127 5.92723 26.5052 6.15026 26.5052 6.38321V9.71689C26.5052 9.94984 26.4127 10.1732 26.2479 10.3376C26.0835 10.5024 25.8601 10.5949 25.6272 10.5949H10.8917C10.4069 10.5949 10.014 10.2016 10.014 9.71686L10.0209 6.38323ZM35.0094 46.6668C35.0094 47.0354 34.8631 47.389 34.6028 47.6497C34.3421 47.9107 33.9889 48.0574 33.6203 48.058H2.88116C2.51255 48.0574 2.15934 47.9107 1.899 47.6497C1.63829 47.389 1.49202 47.0354 1.49202 46.6668V8.35386C1.4927 7.98559 1.63933 7.63238 1.89969 7.37205C2.16004 7.11172 2.51291 6.96507 2.88114 6.96473H8.5303V9.34808H5.91436C5.50327 9.34808 5.17027 9.68107 5.17027 10.0922V42.8651C5.16959 43.0627 5.24804 43.2525 5.38748 43.3926C5.5269 43.5324 5.71669 43.6112 5.91436 43.6112H30.5863C30.7844 43.6112 30.9741 43.5324 31.1143 43.3926C31.254 43.2529 31.3328 43.0631 31.3328 42.8651V10.0922C31.3315 9.68073 30.9978 9.34808 30.5863 9.34808H27.9704V6.96473H33.6196C33.9878 6.96507 34.3407 7.11169 34.601 7.37205C34.8617 7.63242 35.008 7.98561 35.0087 8.35386L35.0094 46.6668ZM8.96932 30.5897C8.71958 30.2714 8.7696 29.8117 9.08272 29.5547C9.39549 29.2981 9.85627 29.3386 10.1193 29.6459L10.6966 30.3461L12.0946 28.1888C12.3276 27.8682 12.7709 27.7853 13.1039 28.0008C13.4365 28.2162 13.5427 28.6544 13.3458 28.9984L11.3924 32.0117C11.2636 32.2121 11.0464 32.3385 10.8086 32.3519C10.5716 32.3635 10.3431 32.2624 10.192 32.0798L8.96932 30.5897ZM8.96932 37.8805C8.70827 37.5629 8.75384 37.0936 9.07142 36.8326C9.38899 36.5712 9.85833 36.6171 10.1194 36.9347L10.6966 37.637L12.0946 35.4773C12.3252 35.1485 12.775 35.0611 13.1118 35.28C13.4485 35.4986 13.552 35.9446 13.3458 36.2893L11.3924 39.3026C11.264 39.503 11.0474 39.6297 10.8097 39.6434C10.5719 39.6568 10.3421 39.5554 10.192 39.3704L8.96932 37.8805ZM16.207 29.3537H22.2909C22.703 29.3537 23.037 29.6877 23.037 30.0999C23.037 30.512 22.703 30.846 22.2909 30.846H16.207C15.7949 30.846 15.4609 30.512 15.4609 30.0999C15.4609 29.6877 15.7949 29.3537 16.207 29.3537ZM16.207 36.6466H24.5314C24.9274 36.6681 25.2374 36.9953 25.2374 37.3917C25.2374 37.788 24.9274 38.1152 24.5314 38.1368H16.2135C15.8175 38.1173 15.5064 37.7915 15.5047 37.3948C15.5026 36.9984 15.8113 36.6699 16.207 36.6466Z" fill="#4DA1BE" fill-opacity="0.35"/>
<path d="M12.9994 21.3497H16.295V24.645C16.295 24.8077 16.3594 24.9639 16.4745 25.079C16.59 25.1941 16.7459 25.2589 16.9089 25.2589H19.6149C19.952 25.2561 20.2237 24.9821 20.2237 24.645V21.3497H23.5145C23.6789 21.3562 23.8393 21.2966 23.9592 21.1839C24.0791 21.0712 24.149 20.915 24.1527 20.7505V18.0294C24.1527 17.8667 24.088 17.7105 23.9729 17.5954C23.8577 17.4803 23.7015 17.4155 23.5388 17.4155H20.2236V14.1203C20.2236 13.9575 20.1592 13.8013 20.0441 13.6862C19.9287 13.5711 19.7728 13.5063 19.6097 13.5063H16.9088C16.5697 13.5063 16.2949 13.7811 16.2949 14.1203V17.4155H12.9993C12.8331 17.4104 12.6718 17.4727 12.5526 17.5885C12.433 17.704 12.3658 17.8633 12.3658 18.0294V20.7505C12.3696 20.9139 12.4388 21.0695 12.5577 21.1818C12.6766 21.2945 12.8356 21.3548 12.9994 21.3497Z" fill="#4DA1BE" fill-opacity="0.35"/>
</svg>
