<svg width="41" height="38" viewBox="0 0 41 38" fill="none" xmlns="http://www.w3.org/2000/svg">
<path fill-rule="evenodd" clip-rule="evenodd" d="M4.14879 8.81527C5.08716 8.81527 5.91946 9.71752 5.91946 10.9764V14.385C5.91946 15.0634 5.48896 15.4994 5.05531 15.4994H3.241C2.80382 15.4994 2.37685 15.0634 2.37685 14.385V10.976C2.37607 9.71745 3.21317 8.81527 4.14879 8.81527ZM36.8009 8.81292C37.7393 8.81292 38.5779 9.71517 38.5779 10.9765V14.3819C38.5779 15.0603 38.1474 15.4963 37.7138 15.4963H35.8995C35.4623 15.4963 35.0353 15.0603 35.0353 14.3819V10.9761C35.0353 9.7152 35.866 8.81292 36.8009 8.81292ZM9.87538 7.66559C11.3546 7.66559 12.5345 8.85143 12.5345 10.3534V14.3839C12.5345 15.1961 11.9088 15.8215 11.1138 15.8215H8.63685C7.84537 15.8215 7.21963 15.1958 7.21963 14.3839V10.3534C7.21924 8.85103 8.39572 7.66559 9.87538 7.66559ZM31.0763 7.66245C32.556 7.66245 33.7316 8.851 33.7316 10.3503V14.3815C33.7316 15.193 33.1098 15.8187 32.314 15.8187L29.8378 15.8184C29.0424 15.8184 28.4202 15.1926 28.4202 14.3811V10.3503C28.421 8.85101 29.5967 7.66245 31.0763 7.66245ZM16.8297 7.3431C18.4984 7.3431 19.8236 8.67505 19.8236 10.3538V14.7794C19.8236 15.7009 19.1102 16.4186 18.1943 16.4186H15.4671C14.5519 16.4186 13.8347 15.7009 13.8347 14.7794V10.3538C13.8347 8.67465 15.158 7.3431 16.8297 7.3431ZM24.1255 7.33957C25.7937 7.33957 27.1205 8.67272 27.1205 10.3511V14.7767C27.1205 15.699 26.4037 16.4166 25.4881 16.4166H22.761C21.8442 16.4166 21.1286 15.699 21.1286 14.7767V10.3503C21.1282 8.67262 22.4538 7.33957 24.1255 7.33957ZM20.4753 1.38874C24.477 1.38874 28.2309 1.69826 31.2778 2.1645C34.3279 2.62956 36.6975 3.27885 37.8088 3.84215C39.1026 4.49458 39.647 5.52092 39.647 7.31009C39.647 8.06896 39.6077 8.74651 39.5076 9.35296C38.9958 8.27431 38.0048 7.5116 36.8021 7.5116C35.9261 7.5116 35.1571 7.91578 34.6059 8.55445C33.9508 7.26061 32.6177 6.36467 31.0767 6.36467C29.7141 6.36467 28.509 7.06542 27.7957 8.12478C27.0431 6.87961 25.6801 6.04259 24.1262 6.04259C22.5853 6.04259 21.2423 6.86667 20.4831 8.0922C19.7235 6.86664 18.3715 6.04571 16.8306 6.04571C15.272 6.04571 13.9106 6.87961 13.1572 8.12478C12.4478 7.06624 11.2407 6.36859 9.87621 6.36859C8.33451 6.36859 7.00135 7.26062 6.34976 8.55837C5.79906 7.91969 5.03038 7.51552 4.14932 7.51552C2.95051 7.51552 1.95713 8.27753 1.44812 9.35688C1.34678 8.74687 1.30475 8.07279 1.30475 7.31039C1.30475 5.52082 1.84916 4.49485 3.14218 3.84246C4.25342 3.27997 6.6259 2.62987 9.67352 2.1648C12.7208 1.69817 16.4739 1.38874 20.4753 1.38874ZM20.4753 0.0854492C16.4051 0.0854492 12.5986 0.40086 9.47658 0.880858C6.35818 1.35967 3.95632 1.97208 2.56143 2.67596C0.857128 3.53618 0 5.20793 0 7.31053C0 9.07617 0.185001 10.6634 1.07191 11.9738V14.3851C1.07191 15.662 1.99026 16.8035 3.23937 16.8035H5.05368C5.65387 16.8035 6.17155 16.5356 6.55295 16.122C7.05179 16.7285 7.795 17.1256 8.63474 17.1256H11.1117C11.845 17.1256 12.5065 16.829 12.9955 16.3542C13.5167 17.1719 14.4264 17.7226 15.4657 17.7226H18.1929C19.1187 17.7226 19.933 17.2795 20.471 16.6047C21.0115 17.2799 21.8324 17.7199 22.7591 17.7199H25.4862C26.5224 17.7199 27.4313 17.1692 27.9521 16.3514C28.4447 16.8271 29.1058 17.1229 29.8367 17.1229H32.3125C33.1534 17.1229 33.8962 16.7258 34.3946 16.1193C34.7796 16.5329 35.2977 16.8012 35.8974 16.8012H37.7117C38.9569 16.8012 39.876 15.6605 39.876 14.3827V11.9745C40.7657 10.6642 40.9479 9.07696 40.9479 7.31132C40.9479 5.20913 40.0912 3.5374 38.39 2.67675C36.9948 1.97287 34.5897 1.36049 31.4706 0.881652C28.3511 0.400879 24.5445 0.0854592 20.4739 0.0854592L20.4753 0.0854492Z" fill="#4DA1BE" fill-opacity="0.35"/>
<path d="M1.43185 28.4547C1.89731 28.8459 2.47158 29.0871 3.11302 29.0871C3.47479 29.0871 3.79138 28.9865 4.0679 28.8495C4.56361 29.7061 5.42066 30.2961 6.43717 30.2961C7.20312 30.2961 7.67168 30.1559 8.17094 29.626C8.63011 31.0983 9.95619 32.0637 11.576 32.0637C12.8043 32.0637 13.7101 31.4706 14.284 30.8385C14.7168 31.8028 15.9164 32.8519 17.51 32.8519C18.8914 32.8519 20.016 32.0766 20.4751 31.2816C20.9343 32.077 22.0588 32.8519 23.4407 32.8519C25.0343 32.8519 26.2331 31.8027 26.6702 30.8385C27.2397 31.4705 28.1463 32.0637 29.3742 32.0637C30.9933 32.0637 32.3229 31.0982 32.7797 29.626C33.2785 30.1567 33.7503 30.2961 34.5127 30.2961C35.5292 30.2961 36.3871 29.7066 36.8819 28.8495C37.1616 28.9865 37.4743 29.0871 37.836 29.0871C38.4786 29.0871 39.0517 28.8463 39.518 28.4547C39.6064 29.0352 39.6449 29.6735 39.6449 30.3841C39.6449 32.1721 39.1012 33.1997 37.8066 33.8517C36.6962 34.4153 34.3261 35.0603 31.2757 35.5304C28.2292 35.9955 24.4753 36.3058 20.4731 36.3058C16.4713 36.3058 12.7174 35.9955 9.67051 35.5304C6.6228 35.0607 4.25041 34.4153 3.13918 33.8517C1.84655 33.1996 1.30174 32.1729 1.30174 30.3841C1.30331 29.6736 1.3422 29.0353 1.43097 28.4547H1.43185ZM22.3321 24.4078H24.5491C25.2263 24.4078 25.7577 24.9388 25.7577 25.6235V29.2234C25.7577 30.5244 24.7349 31.5465 23.4411 31.5465C22.1472 31.5465 21.1279 30.524 21.1279 29.2234V25.6235C21.1279 24.9396 21.6515 24.4078 22.3323 24.4078H22.3321ZM16.4021 24.4078H18.6183C19.2997 24.4078 19.8233 24.9388 19.8233 25.6235V29.2234C19.8233 30.5244 18.804 31.5465 17.5101 31.5465C16.2163 31.5465 15.1935 30.524 15.1935 29.2234V25.6235C15.1931 24.9396 15.7237 24.4078 16.4021 24.4078ZM28.2666 23.6194H30.4835C31.1642 23.6194 31.6886 24.1462 31.6886 24.832V28.4359C31.6886 29.7369 30.6692 30.7629 29.3754 30.7629C28.0816 30.7629 27.0548 29.7369 27.0548 28.4359V24.832C27.054 24.1462 27.5894 23.6194 28.2666 23.6194ZM10.4684 23.6194H12.6837C13.3613 23.6194 13.8963 24.1462 13.8963 24.832V28.4359C13.8963 29.7369 12.8704 30.7629 11.5765 30.7629C10.2827 30.7629 9.26215 29.7369 9.26215 28.4359V24.832C9.26215 24.1462 9.79006 23.6194 10.4684 23.6194ZM33.7016 23.1666H35.3285C35.6809 23.1666 36.0387 23.5181 36.0387 24.0888V27.1322C36.0387 28.2246 35.3156 28.9937 34.5135 28.9937C33.7157 28.9937 32.9918 28.2246 32.9918 27.1322V24.0888C32.9914 23.5181 33.35 23.1666 33.7016 23.1666H33.7016ZM5.62166 23.1666H7.24783C7.60017 23.1666 7.958 23.5181 7.958 24.0888V27.1322C7.958 28.2246 7.23841 28.9937 6.43631 28.9937C5.63422 28.9937 4.91029 28.2246 4.91029 27.1322V24.0888C4.91068 23.5181 5.2693 23.1666 5.62163 23.1666H5.62166ZM37.0229 22.3708H38.6483C39.0006 22.3708 39.3596 22.7192 39.3596 23.2899V25.9228C39.3596 27.0151 38.6388 27.7905 37.8367 27.7905C37.5339 27.7905 37.3379 27.6597 37.3379 27.1318V24.0884C37.3379 23.4658 37.0932 22.8865 36.6996 22.4725C36.7974 22.4065 36.9077 22.3708 37.0228 22.3708L37.0229 22.3708ZM2.30135 22.3708H3.92671C4.04101 22.3708 4.15139 22.4065 4.25273 22.4729C3.85562 22.8869 3.6113 23.4666 3.6113 24.0888V27.1322C3.6113 27.6601 3.41609 27.7909 3.11246 27.7909C2.31391 27.7909 1.59036 27.0155 1.59036 25.9232V23.2903C1.59076 22.7192 1.94977 22.3707 2.30132 22.3707L2.30135 22.3708ZM2.30135 21.0679C1.14376 21.0679 0.287134 22.1178 0.287134 23.2903V25.9233C0.287134 26.2854 0.352338 26.6342 0.45682 26.9626C0.0946622 27.9999 0 29.1437 0 30.385C0 32.4861 0.857069 34.1578 2.56143 35.0195C3.95623 35.7226 6.35818 36.3358 9.47658 36.8146C12.5981 37.2938 16.4046 37.6101 20.4753 37.6101C24.5454 37.6101 28.3519 37.2942 31.4739 36.8146C34.5923 36.3358 36.9974 35.7223 38.3933 35.0195C40.0945 34.1585 40.9512 32.4868 40.9512 30.385C40.9512 29.1406 40.8573 27.9999 40.4952 26.9626C40.5989 26.6346 40.6641 26.2854 40.6641 25.9233V23.2903C40.6641 22.1179 39.8074 21.0679 38.6499 21.0679H37.0245C36.3952 21.0679 35.8281 21.3962 35.4702 21.8664H33.7035C32.9544 21.8664 32.3841 22.2313 32.0392 22.857C31.5993 22.4737 31.1134 22.3201 30.4849 22.3201H28.268C27.2939 22.3201 26.4984 22.8158 26.0857 23.6304C25.8142 23.3889 25.1885 23.1057 24.551 23.1057H22.3341C21.6926 23.1057 20.9401 23.3865 20.4769 23.9396C20.0177 23.3857 19.262 23.1057 18.6198 23.1057H16.4036C15.765 23.1057 15.1393 23.3896 14.8722 23.6304C14.4551 22.8158 13.6596 22.3201 12.6855 22.3201H10.4702C9.84135 22.3201 9.35898 22.4733 8.91473 22.857C8.56946 22.2313 7.99991 21.8664 7.24964 21.8664H5.4833C5.12468 21.397 4.55788 21.0679 3.92903 21.0679H2.30135Z" fill="#4DA1BE" fill-opacity="0.35"/>
</svg>
