<svg width="71" height="60" viewBox="0 0 71 60" fill="none" xmlns="http://www.w3.org/2000/svg">
<path d="M37.4634 23.3977L40.3615 23.8414L38.221 26.0344C37.9316 26.3308 37.8006 26.7471 37.867 27.1553L38.3584 30.1681L35.872 28.7933C35.4801 28.5761 35.0032 28.5761 34.6113 28.7933L32.1248 30.1681L32.6163 27.1553C32.6833 26.7465 32.5517 26.3302 32.2623 26.0338L30.1224 23.8402L33.0204 23.3965C33.4502 23.3307 33.8188 23.0559 34.0033 22.6622L35.2413 20.0255L36.4793 22.6622C36.6639 23.0559 37.0331 23.3319 37.4634 23.3977ZM16.9144 22.6628L15.6764 20.0261L14.4384 22.6628C14.2538 23.0565 13.8847 23.3325 13.4549 23.3977L10.5569 23.8414L12.6967 26.0344C12.9861 26.3308 13.1177 26.7471 13.0508 27.1553L12.5593 30.1681L15.0458 28.7939C15.4377 28.5761 15.9146 28.5767 16.3064 28.7945L18.7929 30.1687L18.3014 27.1559C18.2351 26.7477 18.3661 26.3308 18.6555 26.0344L20.7954 23.8408L17.8973 23.3971L17.8979 23.3977C17.4676 23.3319 17.0989 23.0565 16.9144 22.6628ZM56.0448 22.6628L54.8068 20.0261L53.5689 22.6628C53.3843 23.0565 53.0151 23.3325 52.5854 23.3977L49.6873 23.8414L51.8272 26.0344C52.1166 26.3308 52.2482 26.7471 52.1812 27.1553L51.6898 30.1681L54.1762 28.7939C54.5681 28.5761 55.045 28.5767 55.4369 28.7945L57.9234 30.1687L57.4319 27.1559C57.3655 26.7477 57.4965 26.3308 57.786 26.0344L59.9258 23.8408L57.0278 23.3971L57.0284 23.3977C56.5981 23.3319 56.2294 23.0565 56.0448 22.6628ZM70.4357 2.60867V48.2609C70.4346 48.9526 70.1597 49.6153 69.6706 50.1044C69.1815 50.5935 68.5188 50.8684 67.8271 50.8695H42.4109L36.2787 59.4538C36.0341 59.7968 35.6387 60 35.2177 60C34.7961 60 34.4013 59.7968 34.1568 59.4538L28.0233 50.8695H2.60867C1.9169 50.8684 1.25425 50.5935 0.765139 50.1044C0.276031 49.6153 0.00116273 48.9526 0 48.2609V2.60867C0.00116452 1.9169 0.276016 1.25425 0.765139 0.765138C1.25426 0.27603 1.91693 0.00116273 2.60867 0H67.8261C68.5179 0.00116452 69.1805 0.276015 69.6696 0.765138C70.1588 1.25426 70.4336 1.91693 70.4348 2.60867H70.4357ZM24.7388 22.5212C24.5833 22.0577 24.1821 21.72 23.6994 21.646L18.9799 20.924L16.8569 16.4018C16.642 15.9442 16.1814 15.6518 15.6759 15.6518C15.1699 15.6518 14.7099 15.9442 14.495 16.4018L12.3714 20.924L7.65191 21.646C7.16918 21.7206 6.76798 22.0583 6.61308 22.5218C6.4576 22.9847 6.57465 23.496 6.91587 23.846L10.3689 27.3845L9.55134 32.3982C9.47098 32.8914 9.67886 33.3869 10.0876 33.6746C10.4958 33.9622 11.0327 33.9913 11.4694 33.7497L15.6754 31.4251L19.8814 33.7497C20.321 33.9785 20.8515 33.9494 21.2643 33.6746C21.6725 33.3863 21.8804 32.8914 21.8006 32.3982L20.9831 27.3845L24.4361 23.846C24.7773 23.496 24.8937 22.9847 24.7388 22.5212ZM44.304 22.5212C44.1486 22.0577 43.7474 21.72 43.2646 21.646L38.5451 20.924L36.4221 16.4018C36.2072 15.9442 35.7466 15.6518 35.2412 15.6518C34.7352 15.6518 34.2751 15.9442 34.0603 16.4018L31.9366 20.924L27.2171 21.646C26.7344 21.7206 26.3332 22.0583 26.1783 22.5218C26.0228 22.9847 26.1399 23.496 26.4811 23.846L29.9341 27.3845L29.1166 32.3982C29.0362 32.8914 29.2441 33.3869 29.6529 33.6746C30.0611 33.9622 30.5979 33.9913 31.0347 33.7497L35.2406 31.4251L39.4466 33.7497C39.8862 33.9785 40.4167 33.9494 40.8296 33.6746C41.2377 33.3863 41.4456 32.8914 41.3659 32.3982L40.5483 27.3845L44.0013 23.846C44.3426 23.496 44.4589 22.9847 44.304 22.5212ZM63.8693 22.5212C63.7138 22.0577 63.3126 21.72 62.8299 21.646L58.1104 20.924L55.9873 16.4018C55.7725 15.9442 55.3119 15.6518 54.8064 15.6518C54.3004 15.6518 53.8404 15.9442 53.6255 16.4018L51.5019 20.924L46.7824 21.646C46.2996 21.7206 45.8984 22.0583 45.7435 22.5218C45.5881 22.9847 45.7051 23.496 46.0463 23.846L49.4994 27.3845L48.6818 32.3982C48.6014 32.8914 48.8093 33.3869 49.2181 33.6746C49.6263 33.9622 50.1632 33.9913 50.5999 33.7497L54.8059 31.4251L59.0118 33.7497C59.4515 33.9785 59.9819 33.9494 60.3948 33.6746C60.803 33.3863 61.0109 32.8914 60.9311 32.3982L60.1135 27.3845L63.5666 23.846C63.9078 23.496 64.0242 22.9847 63.8693 22.5212Z" fill="#4DA1BE"/>
</svg>
