<svg width="67" height="60" viewBox="0 0 67 60" fill="none" xmlns="http://www.w3.org/2000/svg">
<path d="M7.488 19.8768L10.24 22.1533C11.1119 22.874 11.7214 23.3786 12.32 23.8684L12.4111 23.9424C13.9836 25.2302 15.5847 26.515 18.6134 28.9251C21.2686 30.8258 22.8015 31.5093 24.9068 31.5093H42.0008C45.6332 31.5093 46.8528 31.7172 49.7303 33.0675C53.5707 34.8765 55.9555 36.0389 58.2773 37.2356C58.5167 37.3639 58.5167 37.3639 58.7562 37.4865C59.9156 38.0875 60.1694 38.2244 63.457 39.9795C65.91 41.2874 66.6907 43.8027 65.5652 45.9057C64.4568 47.9656 61.9585 48.7745 59.6591 47.5383C57.2915 46.2677 47.1402 41.3875 45.9009 40.7632L45.8041 40.7117C44.8039 40.2161 44.0971 40.0563 42.0004 40.0563H32.6417H31.9296H24.9069C21.2062 40.0563 17.4455 39.1334 14.0467 36.4949C7.79057 31.6372 7.16053 31.1187 1.68533 26.384C-0.340311 24.6316 -0.513938 21.9506 1.02427 20.1249C2.59349 18.2586 5.28006 18.0506 7.48799 19.8769L7.488 19.8768Z" fill="#4DA1BE"/>
<path fill-rule="evenodd" clip-rule="evenodd" d="M33.454 48.6042C29.3718 48.6042 26.924 46.5815 26.4342 42.906H40.4737C40.3973 43.4762 40.2739 44.0067 40.1047 44.496C41.2491 45.6571 42.2546 46.6913 43.6788 48.1587L43.7103 48.193C45.6778 50.2248 46.1042 50.6638 46.8904 51.4689C51.085 51.6896 53.3963 54.2011 53.3963 58.5753C53.3963 59.3618 52.7581 60 51.9716 60H40.5758C39.7898 60 39.1516 59.3618 39.1516 58.5753C39.1516 56.9242 39.481 55.5384 40.1166 54.4411C39.6636 53.9934 39.3731 53.7067 39.1263 53.4633C38.7085 53.0475 38.3551 52.6934 38.0268 52.3645L38.0267 52.3643C37.8715 52.2089 37.7219 52.059 37.5738 51.9108L37.4283 51.7625C36.4678 50.7945 35.5313 49.8329 34.3273 48.5715C34.0451 48.5932 33.754 48.6042 33.454 48.6042Z" fill="#4DA1BE"/>
<path fill-rule="evenodd" clip-rule="evenodd" d="M36.3024 22.9622V20.1134C36.3024 18.7517 36.9749 17.8115 38.3681 17.1134C38.773 16.9096 39.1592 16.7147 39.5442 16.5203L39.5445 16.5202C39.9128 16.3343 40.2801 16.1489 40.6617 15.9568C41.0347 15.7679 41.4584 15.5519 42.1077 15.2208L42.5418 14.9995L42.5933 14.9738C44.887 13.8086 46.656 12.9281 49.75 11.4209C52.5392 10.062 52.243 6.65754 49.4991 5.91395C45.6157 4.86561 42.9405 4.12494 40.3454 3.38416L39.7726 3.21913C37.4079 2.5409 36.619 2.30768 29.5872 0.224874C27.0346 -0.527762 25.1516 0.660331 24.2626 3.01938C24.2395 3.08107 24.2209 3.14335 24.2067 3.20583C21.5047 3.14677 19.0831 5.16657 18.4822 7.41624C18.2771 8.17698 18.7273 8.95726 19.4881 9.15994L19.488 9.16003L27.7417 11.3707C28.5025 11.5757 29.2832 11.1255 29.4854 10.3619C30.0627 8.20829 29.0932 5.40403 26.9277 4.02937L26.9293 4.02529C27.3309 2.95978 27.7897 2.66937 28.7755 2.95978C35.8125 5.04268 36.6104 5.27589 38.9833 5.95977L39.5562 6.1248C42.166 6.87124 44.8522 7.61198 48.7499 8.66888C48.7865 8.67821 48.8159 8.68322 48.8364 8.68672C48.8575 8.69033 48.8691 8.69232 48.8696 8.69577C48.8701 8.70004 48.8535 8.70655 48.8161 8.72111C48.7603 8.74286 48.6584 8.78257 48.499 8.85966C45.3907 10.3726 43.6075 11.2616 41.2994 12.4325L41.2508 12.4583C40.8474 12.6633 40.5197 12.83 40.2407 12.9719L40.2406 12.972C39.8911 13.1498 39.6178 13.2888 39.3677 13.4155L38.791 13.7072L38.7907 13.7074C38.228 13.9921 37.6776 14.2706 37.0856 14.5664C34.7924 15.7202 33.4536 17.5922 33.4536 20.1134V22.9622H29.1803C26.9697 22.9622 24.9068 25.0251 24.9068 27.2357V28.6604H34.8651C34.8695 28.6604 34.8739 28.6604 34.8782 28.6604C34.8826 28.6604 34.887 28.6604 34.8913 28.6604H42.0008V27.2357C42.0008 25.0251 39.9379 22.9622 37.7273 22.9622H36.3024Z" fill="#4DA1BE"/>
</svg>
