<svg width="60" height="60" viewBox="0 0 60 60" fill="none" xmlns="http://www.w3.org/2000/svg">
<path d="M34.2859 20H27.6924V30H34.2859C36.0526 30 37.6851 29.0469 38.5682 27.5C39.4517 25.9531 39.4517 24.0469 38.5682 22.5C37.6851 20.9531 36.0526 20 34.2859 20Z" fill="#4DA1BE"/>
<path d="M29.9999 5.38492C23.4713 5.38492 17.2102 7.97842 12.5945 12.5949C7.97803 17.2108 5.38452 23.4718 5.38452 30.0002C5.38452 36.5285 7.97803 42.7898 12.5945 47.4055C17.2105 52.0219 23.4716 54.6154 29.9999 54.6154C36.5283 54.6154 42.7896 52.0219 47.4053 47.4055C52.0218 42.7896 54.6153 36.5285 54.6153 30.0002C54.6153 25.6792 53.4779 21.4342 51.3175 17.6924C49.1571 13.9506 46.0493 10.843 42.3075 8.68242C38.5656 6.52202 34.3206 5.38464 29.9996 5.38464L29.9999 5.38492ZM34.1027 33.2821H27.5383V36.5639H32.4615V36.5645C33.3675 36.5645 34.1027 37.2991 34.1027 38.2051C34.1027 39.1117 33.3675 39.8464 32.4615 39.8464H27.5383V43.1283C27.5383 44.0348 26.8037 44.7695 25.8971 44.7695C24.9911 44.7695 24.2564 44.0348 24.2564 43.1283V39.8464H20.974C20.0679 39.8464 19.3333 39.1117 19.3333 38.2051C19.3333 37.2991 20.0679 36.5645 20.974 36.5645H24.2559L24.2564 33.282H20.974C20.0679 33.282 19.3333 32.5474 19.3333 31.6414C19.3333 30.7348 20.0679 30.0002 20.974 30.0002H24.2559L24.2564 18.5127C24.2564 17.6067 24.991 16.8721 25.8971 16.8721H34.1027C37.0341 16.8721 39.7429 18.4358 41.2083 20.9743C42.6743 23.5133 42.6743 26.6408 41.2083 29.1798C39.7429 31.7183 37.0341 33.282 34.1027 33.282L34.1027 33.2821Z" fill="#4DA1BE"/>
<path d="M30 0C22.0437 0 14.4124 3.16088 8.78683 8.78683C3.16088 14.4132 0 22.0437 0 30C0 37.9562 3.16088 45.5876 8.78683 51.2132C14.4132 56.8391 22.0437 60 30 60C37.9563 60 45.5876 56.8391 51.2132 51.2132C56.8391 45.5868 60 37.9562 60 30C60 22.0437 56.8391 14.4124 51.2132 8.78683C45.5868 3.16088 37.9563 0 30 0V0ZM30 53.182C23.8517 53.182 17.9552 50.7397 13.6083 46.3922C9.26079 42.0447 6.81851 36.1484 6.81851 30.0005C6.81851 23.8525 9.26079 17.9556 13.6083 13.6087C17.9557 9.26126 23.852 6.81898 30 6.81898C36.148 6.81898 42.0448 9.26126 46.3917 13.6087C50.7392 17.9562 53.1815 23.8525 53.1815 30.0005C53.1815 36.1484 50.7392 42.0453 46.3917 46.3922C42.0442 50.7397 36.148 53.182 30 53.182Z" fill="#4DA1BE"/>
</svg>
