<svg width="62" height="51" viewBox="0 0 62 51" fill="none" xmlns="http://www.w3.org/2000/svg">
<path d="M61.2363 24.0145L46.2508 16.4872V16.4867C46.1319 16.429 46.0022 16.3976 45.8705 16.3946C46.6733 14.6382 47.0222 12.7074 46.8848 10.7807C46.5714 7.84588 45.1706 5.13438 42.9582 3.17987C40.7459 1.22589 37.8821 0.170382 34.9307 0.221893H33.9622H33.9627C31.0793 0.221378 28.2233 0.773045 25.5478 1.84705C24.4383 2.29579 23.1986 2.29579 22.0896 1.84705C19.4213 0.77614 16.5729 0.224528 13.6973 0.221893H12.7288H12.7293C9.77802 0.170432 6.91411 1.2259 4.70178 3.17987C2.48945 5.13438 1.08865 7.84588 0.775241 10.7807C0.456691 14.6217 2.07875 18.3682 5.09793 20.7636L8.55613 46.1238C8.6467 47.4293 9.22822 48.6525 10.1843 49.5469C11.1405 50.4408 12.3997 50.9394 13.7089 50.942C14.2894 50.94 14.8658 50.8427 15.4148 50.6539C17.0708 50.0152 18.2818 48.5692 18.6193 46.8267L22.4809 29.0403C22.6018 28.3903 23.1689 27.919 23.8296 27.919C24.4904 27.919 25.0575 28.3903 25.1784 29.0403L29.04 46.8846C29.3776 48.6272 30.5885 50.0731 32.2445 50.7118C32.7936 50.9007 33.3699 50.998 33.9504 51C35.1942 50.9959 36.3948 50.5436 37.3324 49.7263C38.2706 48.9097 38.8825 47.7821 39.0569 46.5507L45.0625 50.7927H45.063C45.2652 50.909 45.4984 50.9614 45.7315 50.9424C45.9667 50.9419 46.1956 50.8693 46.3886 50.735L57.1322 43.2077C57.3618 43.0482 57.5254 42.8105 57.5933 42.5387L61.8698 25.3176C61.9917 24.788 61.7277 24.2456 61.2358 24.0151L61.2363 24.0145ZM34.2044 3.68024C36.3076 3.75332 38.3053 4.61633 39.8007 6.0969C41.2962 7.57688 42.1793 9.56643 42.2735 11.6686L39.968 11.8302C39.9176 10.3101 39.2965 8.86446 38.2287 7.78129C37.1603 6.69853 35.7235 6.05732 34.2044 5.98579V3.68024ZM42.2735 14.0548V16.3603H39.968V14.0548H42.2735ZM55.4608 41.5584L45.7314 48.3827L36.0485 41.5584L32.0828 25.6625L45.7312 18.8038L59.3795 25.6625L55.4608 41.5584Z" fill="#4DA1BE"/>
<path d="M43.4263 25.5823V31.3459H37.6626V35.9569H43.4263V41.7205H48.0372V35.9569H53.8009V31.3459H48.0372V25.5823H43.4263Z" fill="#4DA1BE"/>
</svg>
